<?xml version="1.0" encoding="utf-8"?>
<!-- Generator: Adobe Illustrator 18.1.1, SVG Export Plug-In . SVG Version: 6.00 Build 0)  -->
<svg version="1.1" id="Layer_1" xmlns="http://www.w3.org/2000/svg" xmlns:xlink="http://www.w3.org/1999/xlink" x="0px" y="0px"
	 viewBox="0 0 313 229" enable-background="new 0 0 313 229" xml:space="preserve">
<g>
	<g>
		<path fill="#A29060" d="M88.5,42.6c0,0,0,0,0,0.1c20.8,2.2,32.9,13.3,48.9,20.5c3.4-1.9,6.3-3.7,10.5-4.2
			c4.9-0.8,10.4,0.4,11.9,3.8c1.1,2.9-1.4,5.5-3,6.7c-3,2.2-7,2.3-10.8,1.6c-0.8-0.1-2.1-0.7-2.7-0.5c-0.8,0.1-2.5,2.5-3.4,3.7
			c-11.5,14.2-21.7,30.6-27.7,50c-1.1,3.4-2,7-2.7,11.3c-0.8,5.5-2.1,15.7,4.9,15c1.6-0.3,3.3-2,3.6-3.6c0-0.8-0.7-1.4-0.5-2.2
			c11.5-1.4,16.4,10.2,12.8,20.5c-3.1,8.7-10.5,14.4-20.8,15.4c-1.8,0-3.7,0-5.5,0c0,0,0,0,0-0.1C91.5,179,83.4,170,83.4,156.2
			c0-8.1,2.7-15.7,5.5-22.4c2.5-5.9,5.1-11.3,8.1-16.7c0.3-0.7,1.1-1.2,1-2c-2.3,0-4.8,0-7.4,0c-2.3,0-5.3-0.5-7.2,0
			c-1,0.4-2.7,3.3-3.8,4.5c-8.3,10.4-17.9,20.9-31.4,26.2c-8.3,3.3-19.4,4.2-27.6,0.7c-7.5-3.3-13-9-14.4-18.5c0-1.4,0-2.7,0-4
			c1.1-7.8,7.5-15.4,16.1-16.1c5.7-0.5,10.9,1.2,13.1,5.9c-1.5,0.1-2.7,0.8-2.9,2c-0.5,3.1,2.7,4.9,5.5,5.2
			c5.3,0.3,10.1-1.5,13.9-3.3c3.8-1.9,7.2-4.4,10.4-6.7c6.6-5.2,12.2-10.9,17.8-16.4c11.5-11.6,23.9-21.9,41.3-27.1
			c-6-1.4-13.5-4.9-22.1-4.9c-8.3,0.1-15.7,3-18.9,8.1c-2.2,3.4-2.3,10,2.6,10.7C80.3,83.8,76.6,85,72,85
			c-10-0.1-16.7-6.8-17.2-15.2c-0.7-9.4,3.7-16.3,9.2-20.5c5.1-3.8,11.5-6.1,18.7-6.7C84.5,42.6,86.4,42.6,88.5,42.6z M14.7,125.3
			c-0.1-0.4-0.3-0.8-0.8-0.8c0.3,0.7-0.5,0.4-0.4,1.1C14,126,14.3,125.4,14.7,125.3z M19.1,132.4c-0.1-0.4-0.3-0.8-0.8-0.8
			c0.3,0.7-0.5,0.4-0.4,1.1C18.4,133.1,18.7,132.4,19.1,132.4z M20.7,124.1c0-0.3,0-0.5,0-0.7c-0.4,0-0.5,0.3-0.7,0.7
			C20.3,124.1,20.6,124.1,20.7,124.1z M21.1,138.6c-0.1,0-0.4,0-0.7,0c0,0.4,0.3,0.5,0.7,0.5C21.1,138.8,21.1,138.7,21.1,138.6z
			 M21.1,128.9c1,0,0-1.1,1-0.8c0-0.3,0-0.5,0-0.8c-0.7,0.1-0.8,0.7-1.5,0.8C20.6,128.4,21.1,128.4,21.1,128.9z M22.3,129.9
			c0-0.7,0.5-0.8,0.8-1.2c-0.4,0-0.5-0.3-0.8-0.4c-0.1,0.7-0.7,1-0.7,1.6C21.9,129.9,22.1,129.9,22.3,129.9z M22.3,139.8
			c-0.3-0.1-0.3-0.3-0.5-0.1c0,0.1,0,0.3,0,0.3C22.1,140.1,22.3,139.9,22.3,139.8z M22.5,132.7c-0.1,0-0.3,0-0.4,0
			c0,0.1,0,0.3,0,0.5C22.3,133.2,22.5,133,22.5,132.7z M22.9,117.8c-0.3,0-0.4,0-0.5,0c-0.1,0.5,0,0.7,0.5,0.5
			C22.9,118.2,22.9,118.1,22.9,117.8z M23.3,137.1c0.1,0,0.4-0.8-0.1-0.7c0,0.3-0.4,0.3-0.3,0.7C23,137.1,23.2,137.1,23.3,137.1z
			 M23.3,130.1c0.1-0.5-0.5-0.5-0.4,0C23,130.1,23.2,130.1,23.3,130.1z M23.2,118.7c-0.3,0.1-0.3,0.7,0.1,0.7
			C23.3,119.1,23.6,118.6,23.2,118.7z M23.6,133.4c0.1-0.4-0.5-0.4-0.4,0C23.3,133.4,23.4,133.4,23.6,133.4z M24.5,119.6
			c0-0.3,0-0.4,0-0.5c-0.3,0-0.4,0-0.7,0c0.1,0.4-0.3,0.4,0,0.7C24.3,119.7,24.4,119.7,24.5,119.6z M24.4,117
			c-0.4,0.4-1,1.8,0.1,1.8C24.8,118.3,25.1,117.2,24.4,117z M24.5,121.6c0.3,0,0.5,0,0.5,0.1c-0.7,0.3,0.3,0.7-0.1,1.2
			c0.5,0,0.8-0.1,1.2-0.3c-0.3-0.7,0.3-0.7,0.3-1.2c-0.5,0.1-0.7-0.1-0.5-0.7c-0.4,0-1,0.3-1.1-0.1c0.4,0.1,0.3-0.3,0.3-0.4
			c-0.4,0-0.8-0.1-1,0C24.1,121.1,24.9,120.9,24.5,121.6z M25.5,131c0.1-0.8-1-0.5-0.8,0C24.9,131,25.2,131,25.5,131z M25.5,136
			c0.8,0,0-1.1,1-0.8c0-0.3,0-0.5,0-0.8c-0.8,0.1-1,0.7-1.5,0.8C24.9,135.5,25.5,135.4,25.5,136z M25.5,118.2
			c-0.1,0.5,0.8,0.5,0.7,0C25.9,118.2,25.6,118.2,25.5,118.2z M25.6,142.7c-0.3,0.4,0.7,0.5,0.5,0.1C26,142.5,25.8,142.7,25.6,142.7
			z M25.8,131.7c0.4,0.1,0.7,0.4,1,0.7c0.1-0.4,0.7-0.3,1.1-0.3c-0.4,0.4,0.1,0.5,0.4,0.7c-0.1,0.3-0.8,0.8,0,0.8
			c0-0.7,0.8-0.1,1.4-0.7c0-0.3,0-0.5,0-0.7c-0.1-0.3-0.7,0-0.5-0.4c0.5,0.1,0.5-0.4,0.5-0.8c-0.3,0.4-1,0.4-1.1,0.8
			c-0.1,0-0.4,0-0.5,0c0.1-0.7-1-0.5-0.4-1.4c-1,0-1.1,0.8-1.8,0.1C25.8,131,25.8,131.3,25.8,131.7z M26.6,136.9
			c0.1-0.5,0.7-0.7,0.8-1.1c-0.3-0.1-0.4-0.4-0.8-0.4c0,0.7-0.5,0.8-0.5,1.5C26.2,136.9,26.4,136.9,26.6,136.9z M26.2,129.7
			c0.5,0,1,0.3,1.5,0.4c0.7-0.4,1.1-1.5,0.8-2.3c-1.1,0.1-1.4,0.1-2.2,0.7C26.3,129,26,129.1,26.2,129.7z M27.9,122.2
			c0-0.1-1.2-0.3-1.1,0.1C27,122.4,28.1,122.6,27.9,122.2z M27.4,125.8c-0.1,0.1-0.1,0.7,0.3,0.7C27.7,126.3,27.8,125.7,27.4,125.8z
			 M27.9,140.5c0.1-0.4-0.7-0.4-0.5,0C27.5,140.5,27.8,140.5,27.9,140.5z M28.5,120.4c0.1-0.4-1-0.8-1-0.1
			C27.7,120.4,28.2,120.2,28.5,120.4z M27.7,118.3c-0.1,0.5,0.7,0.5,0.5,0C28.1,118.3,27.8,118.3,27.7,118.3z M28.2,143.9
			c0-0.1,0-0.4,0-0.7c-0.1,0-0.4,0-0.5,0c0,0.3,0,0.5,0,0.7C27.8,143.9,28.1,143.9,28.2,143.9z M28.5,138c-0.1,0-0.4,0-0.5,0
			c-0.1,0.5,0.1,0.7,0.5,0.7C28.8,138.4,28.5,138.3,28.5,138z M27.9,137.5c0.1,0.5,1.5,1,1.8,0.4C29.3,137.5,28.6,137.7,27.9,137.5z
			 M28.8,123.2c-0.1,0-0.4,0-0.5,0c0.1,0.4-0.3,0.3-0.1,0.7c0.5,0.1,0.8,0.4,0.7,1.1C29.7,124.5,27.9,123.7,28.8,123.2z M28.9,126.7
			c0-0.3,0-0.4,0-0.5c-0.3,0-0.4,0-0.7,0c0.1,0.4-0.3,0.4,0,0.7C28.5,126.8,28.8,126.7,28.9,126.7z M28.8,135.1
			c-0.3,0.5,0.8,0.5,0.7,0.1C29.5,135,28.9,135.1,28.8,135.1z M29,130.4c0.5,0,1.1,0,1.6,0c0.1,1,0.5,1.5,1.4,1.8
			c0-0.8-0.4-1.2-0.8-1.6c0.5,0.1,1,0,0.8-0.5c-0.5,0.5-1-0.1-1.8,0c0-0.3,0-0.5,0-0.8c-0.4,0-1.1,0.1-0.8-0.5c-0.1,0-0.3,0-0.4,0
			c0.1,0.5-0.3,0.5-0.3,1C29,129.5,29,129.9,29,130.4z M29,120.9c-0.3,0.3-0.1,0.7,0.3,0.5C29.5,121.2,29.2,121.1,29,120.9z
			 M29.5,127.2c0.4-0.1,0.4,0.3,0.7,0.3c0.4-0.3,0.5-0.7,0.5-1.4c-0.4-0.5-0.7,0-1.2,0C29.2,126.4,29.2,126.9,29.5,127.2z
			 M29.5,133.8c-0.3,0.7,0.3,1.1,0.7,0.7C30.3,133.9,29.9,133.9,29.5,133.8z M29.7,125.3c0,0.5,0.8,0.5,0.7,0
			C30.3,125.3,30,125.3,29.7,125.3z M30.4,139.5c0-0.3,0-0.5,0.1-0.5c0.3,0.1,0.3,0.5,0.4,0.8c0.8,0.3,0.4-0.8,1.2-0.5
			c-0.4,0.4,0.1,0.4,0.4,0.7c-0.1,0.3-0.8,0.8,0,0.8c0-0.7,0.7-0.1,1.2-0.8c0-0.1,0-0.4,0-0.5c0-0.3-0.4,0-0.5-0.3
			c0.4-0.1,0.5-0.4,0.5-1c-0.4,0.5-0.4,0.1-1.2,0.1c-0.1,0.4,0.3,0.3,0.4,0.5c-0.3,0.1-0.4,0.1-0.7,0.1c-0.1-1.1-1.6-0.8-2.3-1.2
			C30.1,138.3,29.7,139.5,30.4,139.5z M31,132.7c0.1-0.3,0.3-0.7,0-1c-0.5-0.1-0.7,0.3-0.7,1C30.5,132.7,30.8,132.7,31,132.7z
			 M31.2,135c0-0.4,0-0.7,0-1.1c-0.7,0.4-0.3-0.5-0.8-0.5c-0.3,0.3,0,1-0.1,1.4C30.8,134.6,30.7,135.1,31.2,135z M32.6,136.8
			c0.3-1,0.3-1.6,0.5-2.5c-0.5,0.1-0.7,0.5-1.1,0.8c-0.4-0.7-1,0.4-1.5,0.4c0.1,0.5-0.1,0.7-0.1,1.1c0.8,0.1,1,0.8,1.4,1.4
			C31.6,137.2,31.9,136.8,32.6,136.8z M32.3,129.3c-0.1-0.3-1.2-0.4-1.1,0.1C31.4,129.5,32.5,129.7,32.3,129.3z M32.3,133.9
			c-0.3,0.1-0.8,0.1-0.8,0.5C31.8,134.9,32.5,134.6,32.3,133.9z M33.4,128.6c-0.3-0.4,0.1-0.7,0-1.4c-0.3,0-0.1-0.3-0.4-0.3
			c-0.4,0.4-0.4,0.5-0.4,1.2C33,128.2,33,128.6,33.4,128.6z M33,142.2c-0.3,0.5,0.8,0.5,0.7,0.1C33.7,142.1,33.3,142.2,33,142.2z
			 M35.1,137.5c0.1,1,0.5,1.5,1.2,1.8c0.1-1-0.4-1.2-0.7-1.6c0.4,0,0.8,0,0.7-0.7c-0.4,0.5-0.8,0-1.5,0c0.1-0.4-0.1-0.4-0.1-0.7
			c-0.8,0.1-0.7-0.5-1.4-0.5c-0.3,0.8,0,0.8,0,1.8C34,137.5,34.5,137.5,35.1,137.5z M33.7,134.3c0.5-0.1,0.4,0.3,0.8,0.3
			c0.4-0.3,0.7-1.1,0.4-1.6c-0.7-0.1-0.8,0.3-1.4,0.4C33.6,133.8,33.7,134,33.7,134.3z M33.7,140.9c-0.1,0.7,0.4,1,0.8,0.7
			C34.6,141,34.2,140.9,33.7,140.9z M34.6,128.2c0-0.7-0.8-0.3-0.8,0.1C34.2,128.3,34.5,128.3,34.6,128.2z M34.2,128.6
			c-0.1,0-0.3,0-0.4,0c0,0.1,0,0.4,0,0.5C34.2,129.1,34.2,128.9,34.2,128.6z M35.1,142.5c-0.1-0.4,0.1-0.4,0.5-0.4
			c0-0.4,0-0.7,0-1.1c-0.8,0.3-0.3-0.5-0.8-0.5c-0.4,0.5-0.1,1.5,0.3,1.6c-0.4,0.1-1.1-0.3-1.1,0.3
			C34.1,142.7,34.8,142.4,35.1,142.5z M35.2,126.4c-0.1-0.4,0.1-0.4,0.3-0.5c-0.5-0.3-1.2-0.5-1.1,0.5
			C34.6,126.4,34.9,126.4,35.2,126.4z M35.6,139.9c0.3-1.2-1.2-1.5-1-0.1C35.1,139.6,35.2,139.9,35.6,139.9z M35.6,134.6
			c-0.3,0-0.4,0-0.5,0c-0.3,0.3-0.1,1,0.5,0.8C35.6,135.1,35.6,134.9,35.6,134.6z M36,133.4c-0.3-0.1-0.4-0.3-0.7-0.1
			c0,0.1,0,0.3,0,0.4C35.7,133.8,36,133.8,36,133.4z M36.6,141c-0.3,0.1-0.7,0.1-0.7,0.5C36,141.8,36.8,141.6,36.6,141z M36.3,132.1
			c-0.3,0-0.3,0.3-0.3,0.5c0.7-0.1,0.8,0.1,0.8,0.7c0.3,0,0.5,0,0.8,0c0.1-0.5,0.5-0.7,0.4-1.5c-0.7-0.7-1.1,0.3-1.4,0.8
			C36.6,132.5,36.8,132,36.3,132.1z M36.1,126.1c-0.1,0.7,1,0.5,1.2,0.3C37,126.3,36.6,126.1,36.1,126.1z M37.8,134.3
			c-0.3,0-0.1-0.3-0.5-0.3c-0.5,0.5-0.4,1.5,0.5,1.6C37.5,135.1,37.8,135,37.8,134.3z M39,135c-0.7-0.3-1.2,0.5-0.8,1.2
			C38.7,136,38.5,135.4,39,135z M38.9,126.9c-0.4,0-0.5,0.1-0.7,0.1C38.1,127.8,39,127.6,38.9,126.9z M39.2,143.6
			c-0.3-0.3-1.1-0.1-0.8,0.4C38.6,144,39.3,144.3,39.2,143.6z M40.1,132.5c-0.4-0.8-1.5,0-1.4,0.8C39.6,133.2,40,133.4,40.1,132.5z
			 M40.1,139.5c0-0.3,0-0.5,0-0.7c-0.4,0-0.7,0-1.1,0c0,0.3-0.3,0.3-0.1,0.7C39.3,139.6,39.7,139.5,40.1,139.5z M39.8,141.7
			c-0.1,0-0.3,0-0.4,0c-0.3,0.3-0.1,1,0.4,0.8C39.8,142.2,39.8,142,39.8,141.7z M40,129.9c0-0.3,0-0.4,0-0.7c-0.1,0-0.3,0-0.5,0
			c0,0.3,0,0.4,0,0.7C39.7,129.9,39.8,129.9,40,129.9z M40.2,140.3c-0.1,0-0.3-0.1-0.7-0.1c0,0.3,0,0.4,0,0.5
			C40,140.7,40.4,140.7,40.2,140.3z M41.5,140.1c0.1-0.5-0.8-0.1-0.5-0.8c-0.5-0.1-0.7,0.1-0.7,0.5
			C41.1,139.5,40.8,140.2,41.5,140.1z M40.4,132.7c0,0.3,0,0.5,0,0.7C41.2,133.6,41.2,132.4,40.4,132.7z M41.8,141.6
			c-0.7,0-1.2,0.1-1.2,0.8c0.3,0,0.4,0,0.7,0c-0.1-0.8,0.4-0.1,0.8-0.3c0-0.7,0.4-0.8,0.8-1.2c-0.4,0-0.1-0.5-0.5-0.4
			c-0.1,0.5-0.4,0.7-1.1,0.5C41.1,141.6,41.9,141,41.8,141.6z M42.8,139.4c0.4-1.4-1.6-1.2-1.5-0.1
			C41.9,139.2,42.3,139.8,42.8,139.4z M41.9,136.5c-0.1,0-0.3,0-0.4,0c-0.1,0.3-0.3,1,0.3,1C42,137.5,41.8,136.8,41.9,136.5z
			 M42,143.2c0-0.3,0-0.7-0.4-0.5c-0.1,0.1-0.1,0.3-0.1,0.5C41.6,143.2,41.8,143.2,42,143.2z M42.6,126.8c0.3-0.5-1-0.7-0.8-0.1
			C41.9,126.8,42.2,126.8,42.6,126.8z M43.1,134c-0.3,0-0.4,0-0.5,0.1C42.4,134.9,43.4,134.7,43.1,134z M44.1,129.3
			c-0.7,0-0.8-0.7-1.5-0.7c0.1,0.3,0.3,0.8,0.3,1.2C43.4,129.7,44.1,129.8,44.1,129.3z M43.5,131.3c0-0.3,0-0.7-0.1-0.8
			c-0.3,0-0.7,0.1-0.5,0.4C43.1,131,43.1,131.3,43.5,131.3z M43.3,135c-0.1,0-0.3,0-0.4,0c0,0.3,0,0.7,0.4,0.5
			C43.3,135.4,43.3,135.1,43.3,135z M43.9,128.3c-0.1-0.3-0.5-1,0.3-0.8c-0.1-0.3-0.3-0.5-0.7-0.5c0.1,0.5-0.4,0.5-0.3,1.1
			C43.7,127.9,43.5,128.4,43.9,128.3z M44.1,131.6c-0.1,0-0.1,0.3-0.3,0.3s-0.1-0.4-0.4-0.3c-0.3,0.4,0.3,0.8,0.7,0.8
			c0.1-0.4,0.7-0.3,1.2-0.3c-0.4-0.7-0.8-1.2-1.1-1.9c0,0.5-0.5,0.3-0.5,0.7C43.8,131.2,44.1,131.2,44.1,131.6z M43.9,139.5
			c0.1,0.1-0.1,0.7,0.3,0.5C44.5,140.1,44.3,139.2,43.9,139.5z M45,126c-0.3,0-0.3,0.1-0.5,0.1c0.3,0.5-0.7,0.1-0.4,0.7
			C44.5,126.7,44.9,126.5,45,126z M45,128.4c-0.4,0-0.4-0.4-1-0.4c-0.1,0.5,0.7,0.1,0.4,0.7C44.8,128.7,45,128.7,45,128.4z
			 M45.4,134.7c0.1-0.7-0.8-0.7-0.7,0C45,134.7,45.2,134.7,45.4,134.7z M45.3,127.5c-0.5,0-0.5,0.7,0,0.5
			C45.3,127.9,45.3,127.8,45.3,127.5z M45.6,138c-0.1,0-0.3,0-0.4,0c0,0.3-0.3,0.8,0.3,0.7C45.7,138.7,45.4,138.1,45.6,138z
			 M46.4,126.4c-0.4-0.4-1.1,0.1-1.1,0.5C45.9,126.9,46.1,126.7,46.4,126.4z M46.1,142.1c-0.3-0.1-0.3-0.7-0.8-0.5
			c0,0.4,0.4,0.4,0.3,1C46,142.5,46.1,142.4,46.1,142.1z M46.3,130.6c-0.1-0.5,0.4-0.5,0.3-1c-0.7-0.1-0.8,0.3-0.7,1
			C46,130.6,46.1,130.6,46.3,130.6z M46.9,133.2c0.3,0,0,0.5,0.5,0.3c0.1-0.4-0.4-0.3-0.3-0.7c-0.7-0.1-1.1,0.1-1.4-0.1
			c-0.1,0.8,0.3,1.2,1,1.2C46.9,133.8,46.7,133.2,46.9,133.2z M46.7,141.3c-0.1-0.3-0.5-1,0.3-0.8c0-0.3-0.1-0.5-0.7-0.5
			c0.3,0.5-0.3,0.5-0.1,1C46.4,140.9,46.3,141.4,46.7,141.3z M46.4,135.1c-0.3,0.4,0.7,0.5,0.5,0.1C46.9,135,46.7,135.1,46.4,135.1z
			 M46.4,137.5c-0.1,0.7,0.7,0.5,0.5,0C46.8,137.5,46.7,137.5,46.4,137.5z M47.2,137.2c0-0.3,0.1-0.8-0.1-1c-0.1,0-0.4,0-0.7,0
			c0,0.3,0,0.5,0,0.8C46.8,137.1,46.8,137.3,47.2,137.2z M47.2,132.4c0-0.1,0-0.4,0-0.5c-0.4,0-0.5,0.3-0.7,0.5
			C46.8,132.4,47.1,132.4,47.2,132.4z M47.2,139.1c-0.1,0.5,0.7,0.4,0.5,0C47.6,139.1,47.4,139.1,47.2,139.1z M47.8,141.4
			c-0.1,0-0.3-0.1-0.5-0.1c0,0.1,0,0.3,0,0.4C47.5,141.7,47.8,141.7,47.8,141.4z M47.8,134.5c-0.1,0.1-0.3,0.8,0.1,0.7
			C48.2,135.1,48,134.5,47.8,134.5z M48,140.5c-0.5,0-0.5,0.7,0,0.5C48,140.9,48,140.7,48,140.5z M48.3,131c0.3-0.3,0.7-0.4,0.5-1.1
			c-0.5,0-0.8,0.3-1.1,0.5C47.8,130.8,48,131,48.3,131z M48.4,136.4c-0.1-0.1-0.4-0.3-0.7-0.1c0,0.1,0,0.3,0,0.4
			C48.2,136.8,48.4,136.8,48.4,136.4z M48.4,126.9c-0.1,0-0.3,0-0.4,0c0,0.4,0,0.7,0.4,0.5C48.4,127.3,48.4,127.2,48.4,126.9z
			 M49.3,139.4c-0.5-0.4-1.2,0.1-1.2,0.5C48.6,139.9,49,139.8,49.3,139.4z M48.9,127.2c-0.3,0.1-0.4,0.4-0.3,0.8
			C49.1,128.2,49.3,127.3,48.9,127.2z M48.9,132.4c0.1,0.3-0.1,1,0.4,1c0-0.7,0.7-0.7,0.8-1.2C49.5,132.1,49,132.1,48.9,132.4z
			 M50.1,131.9c-0.1-0.5,0.4-0.4,0.3-0.8c-0.5,0-1.4-0.1-1.2,0.5C49.4,131.7,49.5,132,50.1,131.9z M49.8,132.7c0,0.1,0,0.3,0,0.5
			c0.3,0,0.4,0,0.5,0c-0.1-0.7,0.4-0.5,0.3-1.1c-0.5-0.3,0,0.5-0.4,0.5C50.1,132.7,50,132.7,49.8,132.7z M50.9,136.6
			c-0.1,0-0.4,0-0.5,0c0,0.3,0,0.4,0,0.5C50.8,137.2,50.9,137.1,50.9,136.6z M51.2,130.5c-0.3,0-0.4,0-0.7,0c0,0.3,0,0.4,0,0.5
			C50.9,131.2,51.3,131,51.2,130.5z M52.1,132.7c0-0.4-0.1-0.5-0.4-0.5c0.1,0.4-0.7,0-0.4,0.7C51.7,132.8,51.7,132.5,52.1,132.7z
			 M52.3,126.8c-0.1,0-0.3,0-0.4,0c0,0.1-0.3,0.7,0.3,0.5C52.4,127.3,52.1,126.9,52.3,126.8z M52.8,132.1c0.1-0.1,0.7-1.1,0-1.1
			c0,0.1-0.1,0.3-0.3,0.3C52.5,131.7,52.4,132.1,52.8,132.1z M53.4,131c0,0.5,0.7,0.5,0.5,0C53.8,131,53.6,131,53.4,131z
			 M53.8,124.8c-0.3,0.4,0.7,0.5,0.5,0C54.3,124.6,54.1,124.8,53.8,124.8z M55.3,129.5c-0.3-0.7-1.4-0.4-1.1,0.5
			C54.7,129.9,55,129.8,55.3,129.5z M57.1,132.7c0.3-0.3,0.3-0.7,0.3-1.1c-0.3-0.3-1-0.1-1,0.3C56.5,132.3,56.6,132.7,57.1,132.7z
			 M60.7,67.6c0-0.3-0.4-0.1-0.5-0.3c0.1,0.1-0.1,0.7,0.1,0.7C60.3,67.6,60.9,68,60.7,67.6z M60.9,72c-0.1,0.4,0.7,0.4,0.5,0
			C61.2,72,61,72,60.9,72z M63.2,69.9c0-0.3,0-0.7-0.4-0.7c0,0.3-0.4,0.3-0.4,0.5C62.7,69.9,62.9,69.9,63.2,69.9z M63.5,69.5
			c0,0.4,0,0.7,0,1.1c0.4,0.1,0.7,0.4,1.1,0.5c0.1-0.4,0.5-0.3,1-0.3c0-0.3,0.3-0.4,0.1-0.8C65,69.9,64.2,69.8,63.5,69.5z
			 M63.9,68.4c0.8-0.1,1,0.5,1.8,0.4c0.3-0.7,1-1.4,0.5-2.2c-1.1-0.1-1.4,0.3-2.2,0.5C64.2,67.8,63.8,67.9,63.9,68.4z M65.7,60.9
			c-0.3,0.1-1.1-0.3-1,0.3C65,61.1,65.8,61.5,65.7,60.9z M65.9,71.9c-0.1,0.1-0.5,0.1-0.4,0.5c0.7,0,0.4-0.5,1-0.1
			c0.1-0.4,0.8-0.3,0.8-0.8c0-0.5-0.4-0.4-0.5-0.7c0.4,0,0.5-0.4,0.5-0.8c-0.5,0.7-1.9,0.4-1.8,1.6C65.7,71.6,66.1,71.4,65.9,71.9z
			 M67,76.6c-0.4,0-1-0.5-1.4-0.3C65.8,76.6,66.9,77.3,67,76.6z M66.2,76.9c-0.1,0-0.3,0-0.5,0c0,0.5,0.3,0.5,0.7,0.5
			C66.4,77.2,66.2,77.2,66.2,76.9z M66.8,69.1c0.5,0,1.1,0,1.6,0c0.1,1,0.4,1.6,1.4,1.8c0.1-1-0.5-1-0.8-1.6c0.5,0,1,0,0.8-0.4
			c-0.5,0.4-0.8-0.1-1.6,0c0-0.3,0-0.5,0-0.8c-0.8,0.1-0.8-0.5-1.4-0.5c0.1,0.5-0.3,0.4-0.3,0.8C66.8,68.4,66.8,68.7,66.8,69.1z
			 M66.5,74.5c0.4,0,0.7,0,0.7-0.4c-0.1-0.1-0.5-0.1-0.7,0C66.5,74.2,66.5,74.3,66.5,74.5z M66.8,66.8c-0.3,0.5,0.7,0.5,0.5,0.1
			C67.3,66.8,67,66.8,66.8,66.8z M67.2,72.5c-0.4,0.5,0.1,1,0.8,0.8C68.1,72.7,67.4,72.8,67.2,72.5z M67,65.8c0.4,0.1,0.7,0.3,1,0.4
			c0.4-0.1,0.5-1,0.4-1.5c-0.7-0.1-0.7,0.4-1.4,0.3C67,65.3,67,65.6,67,65.8z M69,73.9c0-0.4,0-0.7,0-1.1c-0.7,0.3-0.3-0.5-0.7-0.5
			c-0.3,0.3-0.1,1-0.1,1.4C68.5,73.5,68.4,74,69,73.9z M68.3,71.6c0.5,0,0.5-0.4,0.5-1c-0.3,0-0.5,0-0.7,0.1
			C68.1,71,68.1,71.4,68.3,71.6z M70,72.8c-0.4,0-0.7,0.3-0.8,0.5C69.8,73.4,70.2,73.4,70,72.8z M70.9,57.6c-0.4,0-0.8,0-1.2,0
			c-0.3,0.4,0,0.4,0.1,0.8C70.3,58.3,70.9,58.3,70.9,57.6z M71.1,67.5c-0.1-0.5,0.1-1.2-0.1-1.6c-0.1,0-0.3,0-0.4,0
			c-0.4,0.4-0.1,0.5-0.3,1.2C71,66.8,70.7,67.5,71.1,67.5z M71.3,120.4c-0.5,0-0.7,0.3-0.7,0.8C71.1,121.2,71.1,120.8,71.3,120.4z
			 M72.1,70.4c0-0.3-0.1-0.5-0.3-0.5c-0.1,0.3-0.3,0.3-0.1,0.5C71.8,70.4,72,70.4,72.1,70.4z M72.4,66.7c-0.4,0-0.8,0-0.7,0.5
			C72.1,67.2,72.4,67.1,72.4,66.7z M72.5,75.5c0-0.3-1-0.4-0.7,0C71.8,75.8,72.8,76,72.5,75.5z M72.4,60.7c0-0.1,0-0.3,0-0.4
			c-0.1,0-0.4,0-0.4,0.1C71.8,60.8,72.2,60.7,72.4,60.7z M72.4,56.3c0.3-0.1,0.1-0.7,0.1-1c-0.4-0.1-0.5,0.1-0.5,0.5
			C72,56,72.2,56.1,72.4,56.3z M73.6,58.2c0.1-0.5-0.3-0.7-0.3-1.1c-0.8,0-1.2,0.3-1.4,0.8C72.5,57.9,72.6,58.3,73.6,58.2z
			 M73.6,64.8c0-0.7-0.3-0.8-0.8-1c0,0.5-0.8,0.5-0.7,1.4C73.1,65.4,72.8,64.5,73.6,64.8z M72.5,66c-0.1,0-0.3,0-0.4,0
			c0,0.4,0,0.7,0.4,0.5C72.5,66.4,72.5,66.3,72.5,66z M73.3,74.2c0-0.3,0-0.5,0-0.8c-0.1,0-0.3,0-0.5,0c-0.1,0.1-0.1,0.5-0.1,0.8
			C72.9,74.2,73.2,74.2,73.3,74.2z M73.3,78c-0.1,0-0.3,0-0.4,0c0,0.3,0,0.7,0.3,0.8C73.3,78.6,73.3,78.3,73.3,78z M73.1,69.1
			c-0.1,0.5,0.3,0.5,0.5,0.4C73.6,69.3,73.5,69.1,73.1,69.1z M73.1,72.1c-0.1,0.5,0.8,0.4,0.7,0C73.5,72.1,73.3,72.1,73.1,72.1z
			 M73.6,56.4c-0.3,0.5,0.7,0.7,0.5,0.1C74.1,56.4,73.9,56.4,73.6,56.4z M74,64.3c-0.3,0-0.3,1.1,0.3,0.8C74.6,65,74.6,64.1,74,64.3
			z M75.9,53c-0.1,0-0.3,0-0.5,0c0,0.5,0.1,0.7,0.5,0.5C75.9,53.4,75.9,53.3,75.9,53z M76.2,56.8c-0.1,0-0.3,0-0.4,0
			c0,0.4,0,0.7,0.4,0.5C76.2,57.2,76.2,57,76.2,56.8z M76.6,66c0-0.3-0.5,0-0.7,0C75.8,66.4,76.9,66.4,76.6,66z M76.2,61.5
			c0.3,0,0.5,0,0.8,0c-0.1-0.5-0.5-1.4-1.1-1.1C76.1,60.7,76.3,60.9,76.2,61.5z M77,63c0-0.4-0.1-0.7-0.5-0.7c0,0.1,0,0.3-0.3,0.1
			C76.3,62.8,76.6,63,77,63z M77.6,63.4c-0.3,0.3-0.4,0-0.8,0c-0.3,0.7,0.4,0.4,0.4,0.8c0.5-0.1,0.8-0.4,1.5-0.3
			c0.1-0.5-0.4-0.3-0.1-1c-1.1,0.3-0.1-0.8-0.8-1c-0.3,0.1,0,0.7-0.5,0.4C77.2,63,77.7,62.8,77.6,63.4z M77.4,60.1
			c0.1-0.4-0.7-0.8,0.1-0.8c0-0.4-0.1-0.5-0.5-0.5c0.1,0.5-0.3,0.5-0.3,0.8C77,59.7,76.9,60.2,77.4,60.1z M77.8,54.9
			c-0.3,0-0.4,0-0.7,0c-0.1,0.7,0,1.2,0.8,1.1C78,55.6,78,55.2,77.8,54.9z M77.6,54.4c0-0.3,0-0.5-0.3-0.5c0,0.1-0.1,0.3-0.1,0.5
			C77.3,54.4,77.4,54.4,77.6,54.4z M79.9,58.2c-0.4-0.7-1.1,0.1-1.2,0.5C79.2,58.6,79.7,58.6,79.9,58.2z M79.7,62.4
			c0-0.4,0.1-0.7,0.1-1c-0.5,0-0.7,0.4-0.7,1C79.5,62.4,79.6,62.4,79.7,62.4z M81.9,58.7c-0.1,0-0.3,0-0.4,0c0,0.1-0.3,0.7,0.3,0.5
			C82.1,59.4,81.8,58.9,81.9,58.7z M82.5,59.1c-0.1,0-0.3,0-0.4,0c0,0.1-0.1,0.3-0.1,0.5C82.5,59.8,82.6,59.6,82.5,59.1z M86.3,56.8
			c-0.8,0-0.8-0.8-1.2-1c-0.3,0.4,0,0.8-0.7,1c0.4,0.5-0.1,0.5,0,1.4c0.4-0.1,0.1,0.5,0.8,0.4c0.1-0.4-0.3-0.4-0.3-0.5
			c0.3,0,0.4,0.1,0.8,0.1C85.9,57.6,86.3,57.5,86.3,56.8z M85.9,48.5c0.1-0.4-0.8-0.7-0.7-0.1C85.2,48.6,85.8,48.4,85.9,48.5z
			 M85.6,58.6c-0.1,0-0.3,0-0.4,0c0,0.3,0,0.5,0.4,0.5C85.6,58.9,85.6,58.7,85.6,58.6z M87.7,51.5c0.3-0.1,0.4-0.5,0.4-1.1
			c-0.3-0.1-0.8-0.1-1,0C87.1,50.9,87.3,51.4,87.7,51.5z M89.6,155.2c0-0.1,0-0.4,0-0.7c-0.1,0-0.3,0-0.4,0c0.1,0.4-0.1,0.4-0.1,0.7
			C89.3,155.2,89.5,155.2,89.6,155.2z M91.2,156.2c0.4,0,0.7-0.5,0.3-0.8c0.3,0,0.4,0,0.5-0.1c0-0.1,0-0.4,0-0.7
			c-0.7,0.1-0.8,0.7-1.4,0.8C90.7,155.8,91.2,155.8,91.2,156.2z M91.5,104.5c-0.3,0.3-0.8,0.7-0.7,1.2c4.2,0,8.6,0,13,0
			c8.6-12.8,18.6-25,29.4-35.3c-10.7,2.3-17.8,8.1-24.9,14.6C102,90.9,96.6,97.8,91.5,104.5z M91.8,57.6c-0.1-0.3,0-0.7-0.3-0.5
			c-0.1,0.1-0.3,0.3-0.1,0.5C91.5,57.6,91.6,57.6,91.8,57.6z M91.8,160.8c-0.4,0.5,0.5,0.7,0.4,0.1C92.2,160.8,91.9,161,91.8,160.8z
			 M93,156c-0.3-0.1-0.4-0.4-0.7-0.4c0,0.7-0.5,1-0.5,1.6C92.7,157.4,92.5,156.3,93,156z M92.7,149.6c0.7,0,0.8-0.3,1-0.8
			c-0.4,0-0.8,0-1,0.1C92.7,149.2,92.7,149.4,92.7,149.6z M93.4,146.1c-0.1,0-0.3,0-0.4,0c0,0.4,0,0.7,0.4,0.7
			C93.4,146.5,93.4,146.3,93.4,146.1z M93.1,160.4c-0.3,0.4,0.7,0.5,0.5,0.1C93.7,160.3,93.4,160.4,93.1,160.4z M94.6,138.7
			c0.3-0.5-1-0.7-1-0.3C93.8,138.7,94.4,138.6,94.6,138.7z M94.5,145.3c0.4,0.1,0.1-0.7,0.3-1c-0.5-0.3-0.5-0.4-0.3-0.8
			c-0.3,0-0.4,0-0.5,0c0,0.3-0.3,0.4-0.1,0.8C94.5,144.2,94.5,144.7,94.5,145.3z M94.6,146.3c-0.3,0-0.5,0-0.7,0
			c0.1,0.4-0.3,0.3-0.1,0.7C94.4,147,94.8,146.9,94.6,146.3z M94.4,167.3c0.4-0.1,0.7-0.7,0.3-0.8c0.3,0,0.4,0,0.5-0.1
			c0-0.3,0-0.4,0-0.7c-0.7,0-0.8,0.7-1.4,0.8C93.8,166.8,94.4,166.7,94.4,167.3z M95.3,140.1c-0.3-0.1-0.3,0.1-0.5,0.1
			C94.6,140.6,95.7,140.6,95.3,140.1z M95.5,158.4c0.3-0.7-0.8-0.7-0.7-0.1C94.8,158.5,95.3,158.4,95.5,158.4z M96.1,167.1
			c-0.3-0.1-0.3-0.5-0.8-0.4c0.3,0.8-0.5,0.8-0.4,1.5C95.9,168.4,95.6,167.4,96.1,167.1z M95.3,139.2c-0.1,0-0.3,0-0.3,0
			c-0.1,0.3,0,0.5,0.1,0.5C95.3,139.6,95.5,139.5,95.3,139.2z M95.3,150.3c-0.3-0.4,0.3-0.8-0.3-0.8c0.1,0.4-0.1,0.4,0,0.8
			C95.1,150.3,95.2,150.3,95.3,150.3z M95.5,145.5c-0.1,0.5,0.8,0.5,0.7,0C96,145.5,95.7,145.5,95.5,145.5z M96.1,141.6
			c-0.4,0-0.5,0.3-0.7,0.5C95.9,142.1,96.3,142.1,96.1,141.6z M97.9,159.5c-0.5,0.5,0.4,0.4,0.4,0.8c-0.1,0.3-0.5,0-0.4,0.5
			c0.1,0.1,0.1,0.5,0.5,0.4c0.1-0.4-0.4-0.3-0.1-0.7c0.1,0,0.1,0.3,0.4,0.3c0.1-0.4,0.4-0.5,0.8-0.5c0.3-0.8-0.3-0.8-0.5-1.1
			c0.4,0,0.5-0.4,0.5-0.8c-0.4,0.3-1.2,1-1.6,0.8c0-0.1,0.1-0.3,0.1-0.5c-0.7-0.3-1.6-0.3-2.3-0.7c0,0.4,0,0.7,0,1.1
			C96.4,159.5,96.8,159.6,97.9,159.5z M98.5,155.1c-0.7,0-0.8,0.3-1.1-0.3c0.1-0.1,0.4-0.3,0.1-0.5c-0.5,0.1-0.5,0.7-0.5,1.2
			c-0.3,0-0.3,0.3-0.7,0.1c0.1,0.5-0.3,0.7-0.1,1.4c0.7,0,1.4,0.4,2.2,0.1C98.1,156.2,99,155.9,98.5,155.1z M97.1,139.8
			c-0.3,0-0.7,0-1,0c0,0.3,0,0.4,0,0.7C96.7,140.5,97.2,140.5,97.1,139.8z M96.6,157.1c-0.4-0.3-0.5,0.7-0.1,0.4
			C96.6,157.6,96.6,157.3,96.6,157.1z M96.3,171.4c-0.3,0.5,0.7,0.7,0.5,0.1C96.8,171.4,96.6,171.4,96.3,171.4z M97.7,137.9
			c-0.5-0.1-0.4,0.4-0.8,0.3c0-0.3,0-0.5-0.4-0.4c0,0.1-0.1,0.1-0.1,0.4c0.4,0,0.7,0.1,0.5,0.5C97.1,138.6,97.8,138.6,97.7,137.9z
			 M97,130.8c0-0.3,0-0.4,0-0.5c-0.4-0.1-0.4,0.3-0.5,0.5C96.6,130.8,96.8,130.8,97,130.8z M97.1,133.9c-0.4,0-0.5,0.1-0.7,0.5
			C96.8,134.3,97.1,134.3,97.1,133.9z M98.1,149.5c-0.1-0.1-1.2-0.3-1.1,0.1C97,149.8,98.2,149.9,98.1,149.5z M97,135.7
			c0.3,0,0.5,0,0.8,0c0.1-0.5-0.5-0.5-0.8-0.4C97,135.4,97,135.5,97,135.7z M97.8,157.4c-0.3,0-0.5,0-0.7,0c0.1,0.3-0.1,0.3-0.1,0.5
			C97.5,158.1,97.9,158,97.8,157.4z M98.7,130.8c0.1-0.7-0.3-0.5-0.4-1c-0.5-0.1-1,0-0.8,0.7C98.2,130.2,98.2,130.8,98.7,130.8z
			 M98.1,129.1c0-0.4-0.1-0.7-0.5-0.7c0,0.3,0,0.5,0,0.7C97.7,129.1,97.8,129.1,98.1,129.1z M98.3,171.2c0-0.1,0-0.4,0-0.5
			c-0.3,0-0.4,0-0.5,0c0,0.1,0,0.4,0,0.5C97.9,171.2,98.1,171.2,98.3,171.2z M98.6,169.4c0.1-0.4-0.1-0.7-0.4-0.7
			c0,0.4-0.5,0.1-0.3,0.7C98.2,169.4,98.3,169.4,98.6,169.4z M98.6,135.5c0-0.1-1-0.3-0.7,0.1C97.9,136,98.9,136,98.6,135.5z
			 M98.1,165.9c0.1,0,0.4,0,0.5,0c-0.3-0.5,0.1-0.5,0.7-0.5c-0.1-0.4-0.7-0.5-1.2-0.5c-0.3,0.5,0.7,0,0.4,0.5c-0.1,0-0.3,0-0.4,0
			C98.1,165.5,98.1,165.8,98.1,165.9z M99.3,131.7c0.1,0.7-1,0.1-0.8,0.8c0.3,0,0.5,0,0.8,0c0.1-0.3,0.4-0.5,0.3-1.1
			c-0.8,0-1,0-1.5,0C98.3,132,98.9,132.1,99.3,131.7z M99.3,152.6c-0.4,0-0.5,0.1-0.7,0.5C99,153.2,99.4,153,99.3,152.6z M99,157.7
			c0.5,0,1.2,0,1.8,0c0,1.1,0.5,1.5,1.2,1.8c0.1-0.8-0.4-1.2-0.7-1.6c0.4,0,0.8,0,0.7-0.5c-0.5,0.4-0.8-0.1-1.6,0c0-0.3,0-0.5,0-0.8
			c-0.8,0.1-0.8-0.4-1.4-0.5c0.3,0.7-0.4,0.4-0.4,1C99,156.9,99.2,157.3,99,157.7z M98.7,162.5c-0.1,0.5,0.4,0.4,0.7,0.4
			C99.6,162.5,99.2,162.5,98.7,162.5z M100,129c-0.3-0.1-0.7-0.1-1.2-0.3c0,0.3,0,0.4,0,0.5C99.2,129.1,100,129.5,100,129z
			 M99.6,137.7c0.1-0.3,0.1-0.4,0.1-0.7c-0.4,0-0.8,0.1-0.7,0.7C99.3,137.7,99.4,137.7,99.6,137.7z M100.7,154.5
			c-0.1-0.5,0.3-1,0-1.4c-0.8,0-0.7,0.4-1.2-0.1c0,0.4-0.1,0.8-0.1,1.4C99.7,154.7,100.2,154.8,100.7,154.5z M100.2,161.8
			c0-0.5-0.7-1-1-0.5C99.3,161.9,99.8,162.1,100.2,161.8z M99.3,167.9c0.7,0,1.1,0.4,1.9,0.3c0.1-0.5,0.8-1.2,0.4-2
			c-1.1-0.1-1.2,0.3-2.2,0.5C99.6,167.3,99.3,167.4,99.3,167.9z M100.1,141.2c-0.3,0-0.4,0-0.7,0c-0.1,0.5,0.3,0.7,0.7,0.5
			C100.1,141.6,100.1,141.4,100.1,141.2z M99.8,140.7c1,0.3,0.8-0.5,1.4-0.7c-0.4-0.5,0-1.1,0-1.9c-0.5,0-0.5,0.3-1.1,0.1
			C100.5,139.1,99.6,139.4,99.8,140.7z M101.3,162.3c0-0.4,0-0.7,0-1.1c-1,0.1-0.4-0.5-0.1-0.7c-0.1-0.4-0.8-0.1-1.1-0.1
			c0.1,0.4,0.4,1,0.3,1.6C100.9,161.9,100.7,162.5,101.3,162.3z M101.2,159.2c-0.5-0.4-1.1,0.1-0.8,0.8
			C100.9,160.2,101.2,159.7,101.2,159.2z M101.6,143.5c0.3,0.1,0.5,0.1,0.8,0.1c0.1-0.3,0.4-0.5,0.3-1.1c-0.8-0.1-0.8,0.3-1.5-0.1
			c0,0.7,1,0.8,1.2,0.4C102.6,143.5,101.8,142.9,101.6,143.5z M101.9,141.2c-0.1,0-0.3,0-0.4,0c-0.1,0.5,0,0.7,0.4,0.5
			C101.9,141.6,101.9,141.4,101.9,141.2z M102,121.2c0-0.4,0.1-0.5,0.1-0.7c-0.1,0-0.4-0.1-0.5,0.1c0.4,0.1-0.3,0.1,0,0.5
			C101.8,121.2,101.9,121.2,102,121.2z M102.3,161.8c0-0.1,0-0.3,0-0.5c-0.5-0.1-0.3,0.5-0.7,0.3
			C101.6,162.2,101.9,161.8,102.3,161.8z M103.1,146.1c-0.4,0-0.8,0-1.2,0c0.1,0.3-0.1,0.3-0.1,0.7
			C102.3,146.9,103.3,146.9,103.1,146.1z M101.9,173.5c-0.1,0.5,1,0.4,0.7,0C102.4,173.5,102.2,173.5,101.9,173.5z M103.1,140.1
			c-0.3-0.3-0.7-0.3-1.2-0.3c0,0.1,0,0.3,0,0.5C102.3,140.2,103.1,140.6,103.1,140.1z M103.9,168.8c-0.1,1.1,0.7,1.2,1,1.8
			c0.7-0.5-0.1-1.4-0.4-1.6c0.3-0.1,1,0,0.7-0.7c-0.5,0.5-0.8,0-1.6,0c0-0.3,0-0.5,0-0.8c-0.8,0.1-0.8-0.4-1.4-0.4
			c-0.3,0.8,0,0.8,0,1.8C102.7,168.8,103.4,168.8,103.9,168.8z M103.4,172.9c0.1-0.7-0.4-0.5-0.7-0.8c0,0.3-0.4,0.3-0.3,0.7
			C102.6,172.9,103,172.9,103.4,172.9z M102.4,165.5c0.4,0.1,1,0.4,1.4,0.1c-0.1-0.7,0.3-1,0-1.5c-0.7-0.1-0.7,0.5-1.4,0.3
			C102.4,164.8,102.4,165.2,102.4,165.5z M103.4,155.9c0-0.5,0-1,0-1.5c-0.7-0.1-0.8,0.4-0.8,1.1C103.1,155.4,103,155.9,103.4,155.9
			z M103.1,128.2c-0.1,0-0.3,0-0.4,0c0.1,0.3-0.1,0.8,0.3,0.7C103.3,128.9,103.1,128.4,103.1,128.2z M104.2,150.2
			c-1-0.8-1.4,0.4-1.2,1.5C104.1,151.8,104.2,151.1,104.2,150.2z M104.3,170.3c-0.5-0.4-1.1,0-0.8,0.7
			C104.1,171.1,104.3,170.7,104.3,170.3z M104.5,173.4c0-0.4,0-0.7,0-1.1c-0.8,0.3-0.4-0.5-0.8-0.5c-0.3,0.1,0,1-0.1,1.4
			C104.1,173,103.8,173.5,104.5,173.4z M104.8,155.5c0-0.7-0.8-0.3-0.8,0.1C104.3,155.8,104.3,155.5,104.8,155.5z M104.1,164.2
			c0.4,0.1,0.8,0.1,0.8-0.4c-0.4-0.1-0.7-0.1-0.8,0.1C104.1,164.1,104.1,164.1,104.1,164.2z M105.2,153.7c0-0.5,0.3-0.7,0.7-0.5
			c0-0.5-0.3-0.8-0.8-1c0,0.7-0.7,0.7-0.5,1.5C104.8,153.7,104.9,153.7,105.2,153.7z M105.4,172.9c0-0.1,0-0.4,0-0.5
			c-0.4,0-0.7,0.1-0.7,0.5C104.9,172.9,105.2,172.9,105.4,172.9z M105.2,161.8c-0.4,0-0.4,1.1,0.1,1
			C105.7,162.7,105.7,161.7,105.2,161.8z M106.3,157.1c-0.4,0-0.8,0-1.2,0c-0.1,0.4,0.1,0.8,0.7,0.8
			C105.9,157.7,106.4,157.7,106.3,157.1z M105.6,166.6c-0.1,0-0.3,0-0.4,0c0.1,0.3-0.1,0.8,0.3,0.7
			C105.7,167.3,105.6,166.7,105.6,166.6z M106,160.7c-0.1-0.1-0.3-0.3-0.7-0.1c0,0.1,0,0.3,0,0.4C105.7,161.1,106.1,161.1,106,160.7
			z M105.6,116.4c0,0.5,0.4,0.5,1,0.5C106.4,116.6,106.1,116.4,105.6,116.4z M106.5,167c0-0.5,0-1,0-1.5c-0.7-0.3-0.8,0.4-0.8,1.1
			C106.4,166.3,106.1,167,106.5,167z M106.5,117.8c-0.4-0.1-0.7,0-0.7,0.4C106.3,118.1,106.5,118.1,106.5,117.8z M106.7,159.5
			c-0.4,0-0.8,0-0.7,0.5c0.7-0.4,1,1,1.2,0.1C107.1,159.9,106.4,160.2,106.7,159.5z M107.6,120.2c-0.3-0.4-1-0.4-1-1
			c-0.1,0-0.4,0-0.5,0c0.4,0.8,0.1,1.9,1.2,1.9C107.5,120.9,107.5,120.5,107.6,120.2z M106.1,152.9c0,0.3,0,0.5,0,0.8
			C106.9,153.9,106.5,152.9,106.1,152.9z M107.9,166.3c-0.3,0-0.3-0.3-0.5-0.1c0.1,0.4-0.4,0.1-0.3,0.5
			C107.5,166.7,107.8,166.6,107.9,166.3z M108,174.8c-0.4,0-0.7,0-0.8,0.1C107.1,175.6,108.2,175.5,108,174.8z M108,155.8
			c0-0.4,0-0.7,0-1.1c-0.5,0-0.7,0.3-0.7,0.5C107.4,155.5,107.5,155.8,108,155.8z M109,157.6c0.4-1.2-1.6-1-1.6-0.1
			C107.8,157.6,108.3,157.7,109,157.6z M108.3,164.7c-0.1-0.5,0.3-0.5,0.7-0.5c0-0.4-0.3-0.8-0.8-0.8c0,0.5-0.8,0.5-0.5,1.4
			C107.9,164.7,108.2,164.7,108.3,164.7z M108.4,163.2c0.1-0.3,0-0.5-0.3-0.5c0,0.1-0.1,0.3,0,0.5
			C108.2,163.2,108.3,163.2,108.4,163.2z M108.7,173.7c0-0.4,0.1-1-0.4-0.8c-0.3,0-0.1,0.4-0.1,0.8
			C108.3,173.7,108.6,173.7,108.7,173.7z M109.1,171.6c-0.1-0.1-0.3-0.1-0.7-0.1c0,0.3,0,0.4,0,0.5C108.9,172,109.3,172,109.1,171.6
			z M109.5,156.3c0.1-0.4-0.4-0.5-0.7-0.3C108.7,156.5,109.3,156.2,109.5,156.3z M109.4,170.4c-0.1,0-0.3,0.3-0.3,0.5
			c0.7-0.3,1,1,1.2,0.1C109.7,171.2,110,170.4,109.4,170.4z M109.8,164c-0.1,0-0.4,0-0.5,0c0,0.1,0,0.4,0,0.7
			C109.8,164.8,109.8,164.4,109.8,164z M109.7,159.7c0,0.3-0.1,0.8,0.3,0.7C110.2,160.3,110.1,159.6,109.7,159.7z M110.6,111.6
			c0.1,0.5-0.7,0.3-0.5,0.7C110.5,112.5,111.2,111.6,110.6,111.6z M111.7,169c-0.3,0-0.3-0.3-0.7-0.1c0,0.4-0.7,0.3-0.4,0.8
			c0.1,0,0.4,0,0.7,0c0-0.3-0.1-0.5,0.1-0.5c0.1,0.1,0.1,0.4,0.5,0.3c0-0.7,0.5-0.8,0.8-1.2c-0.3,0-0.1-0.5-0.7-0.4
			c0.3,0.8-1,0-0.8,0.7C111.3,168.8,112,168.5,111.7,169z M111.6,156.3c-0.1,0-0.1,0-0.3,0c-0.1,0.3-0.1,0.7,0.3,0.5
			C111.6,156.6,111.6,156.5,111.6,156.3z M111.6,173.7c-0.1,0-0.1,0-0.3,0c-0.1,0.3,0,0.5,0.3,0.4
			C111.6,174,111.6,173.8,111.6,173.7z M112,165.5c0-0.3-0.5,0-0.5,0C111.2,165.9,112.3,165.9,112,165.5z M112.4,160.8
			c0-0.4-0.4-0.5-0.5-1c-0.1,0-0.3,0-0.4,0c0,0.3,0.3,0.4,0.1,1C111.9,160.8,112.1,160.8,112.4,160.8z M112,170c-0.1,0-0.3,0-0.5,0
			c0,0.1,0,0.4,0,0.7C112,170.7,112.1,170.4,112,170z M112.4,162.5c0.1-0.5-0.1-0.7-0.5-0.8c0.3,0.4-0.4,0.1-0.3,0.5
			C111.9,162.3,112.1,162.5,112.4,162.5z M112.5,165.9c-0.1,0-0.3,0-0.5,0c0,0.4,0.1,0.7,0.5,0.5C112.5,166.3,112.5,166,112.5,165.9
			z M112.1,162.9c-0.3,0.7,0.4,0.3,0.4,0.8c0.5-0.1,0.8-0.4,1.6-0.3c0-0.4-0.4-0.4-0.3-1c-0.8,0.1-0.7-0.4-0.5-1c-0.1,0-0.3,0-0.4,0
			c0.3,0.7-0.5,0.3-0.4,0.7C113.1,162.6,112.8,163.4,112.1,162.9z M112.8,159.6c-0.3-0.5-0.3-0.7,0.1-1.1c0-0.1-0.3-0.3-0.5-0.3
			c0.3,0.5-0.3,0.4-0.3,0.8C112.4,159.2,112.3,159.7,112.8,159.6z M112.8,170.7c0,0.3-0.1,0.8,0.3,0.7
			C113.4,171.4,113.2,170.5,112.8,170.7z M113.2,102.6c0,0.1,0,0.3,0,0.3c0,0.1,0,0.1,0.1,0.1c0-0.3,0.5-0.1,0.4-0.7
			c-0.5-0.1-0.1,0.5-0.4,0.4C113.4,102.7,113.4,102.6,113.2,102.6z M114.2,156.6c-0.1-0.1-0.4-0.1-0.7-0.1c0,0.1,0,0.3,0,0.5
			C113.9,157,114.2,157,114.2,156.6z M115.3,157.6c-0.4-0.3-1.2,0.1-1.1,0.7C114.6,158.1,115.1,158,115.3,157.6z M114.3,101.2
			c0,0.4,0.3,0.5,0.8,0.5C115,101.4,114.7,101.2,114.3,101.2z M115,102.5c-0.3,0-0.5,0.1-0.4,0.4C114.9,102.9,115.1,102.9,115,102.5
			z M116.1,164.1c-0.5-0.3-1.1,0.1-1.5-0.1c0,0.7,0.4,1.2,1.1,1.2C115.6,164.5,116,164.5,116.1,164.1z M115.1,161.9
			c0-0.4,0.1-0.5,0.1-1c-0.1,0-0.1-0.1-0.4-0.1c0,0.4-0.3,0.5-0.1,1.1C114.9,161.9,115,161.9,115.1,161.9z M116.1,163.7
			c0-0.3,0-0.4,0-0.5c-0.4,0-0.7,0.1-0.7,0.5C115.7,163.7,115.8,163.7,116.1,163.7z M116.6,157c-0.1,0-0.4,0-0.5,0
			c0,0.1,0,0.3,0,0.5C116.4,157.4,116.5,157.3,116.6,157z M116.5,165.8c0,0.3,0,0.4,0,0.7C117.1,166.6,117.1,165.6,116.5,165.8z
			 M117.2,162.3c0.3-0.3,0.7-0.4,0.5-1.2c-0.5,0.1-0.8,0.4-1.1,0.7C116.6,162.1,116.9,162.3,117.2,162.3z M117.3,167.5
			c-0.1,0-0.4-0.1-0.7-0.1c0,0.3,0,0.4,0,0.5C117.1,168.1,117.3,167.9,117.3,167.5z M117.3,158.2c-0.1,0-0.3,0-0.4,0
			c0,0.4,0,0.7,0.4,0.5C117.3,158.6,117.3,158.5,117.3,158.2z M118,158.5c-0.1,0-0.3,0-0.4,0c-0.3,0.1-0.3,0.8,0.1,0.8
			C117.7,159.1,118,159.1,118,158.5z M117.9,163.4c-0.1,0.3-0.3,1.1,0.1,1.2c0.1-0.7,1-0.7,1-1.4
			C118.4,163.2,118.4,163.4,117.9,163.4z M118.2,163.2c0.4-0.1,0.4,0,0.8,0c-0.1-0.5,0.3-0.4,0.3-0.8c-0.5,0-1,0-1.2,0.1
			C117.7,163,118.3,162.7,118.2,163.2z M118.7,164c0,0.1,0,0.3,0,0.4c0.3,0,0.4,0,0.5,0c-0.1-0.5,0.4-0.4,0.3-1
			c-0.5-0.3,0,0.5-0.4,0.5C119,164,118.8,164,118.7,164z M119.2,162.2c1,0.7,1-1.1,0-0.4C119.2,161.9,119.2,162.1,119.2,162.2z
			 M119.8,167.9c-0.1,0-0.4,0-0.5,0c0,0.3,0,0.4,0,0.5C119.5,168.5,119.8,168.2,119.8,167.9z M121.7,156.6c-0.4-0.4-0.8-0.8-1.2-1.4
			c-0.3,0.1-0.1,0.7,0,0.8c-0.4,0-0.5,0.3-0.7,0.5c0.3,0.1-0.4,1.6,0.8,1.4c0.3-0.4-0.5-0.4-0.1-0.4c0.1,0.1,0.5,0,0.8,0
			C121.3,157,121.7,157,121.7,156.6z M121,163.6c-0.1,0-0.3,0-0.1-0.1c-0.1,0-0.3,0-0.3,0c0.1,0.4-0.3,0.1-0.5,0.3
			C119.9,164.4,121,164,121,163.6z M121.2,158c-0.1,0-0.3,0-0.4,0c-0.1,0.4-0.1,0.7,0.4,0.5C121.2,158.4,121.2,158.2,121.2,158z
			 M122,162.3c-0.7-0.3-1,1-0.3,1C122,163,122,162.7,122,162.3z M123.6,161.2c0-0.3,0-0.4-0.1-0.5c-0.1,0-0.3,0-0.4,0
			c0,0.1,0,0.4,0,0.5C123.2,161.2,123.5,161.2,123.6,161.2z"/>
		<path fill="#A29060" d="M149.7,97c1,0.3,1.4-0.8,1.6-1.2c2.9-3.8,7.9-9.6,15.2-8.9c5.6,0.4,8.7,5.5,9.2,10.3c0.1,3-0.4,5.9-1,8.5
			s-1.4,4.9-2.2,7.4c-1.8,4.8-3.8,8.6-6.4,12.7c-2.2,3.3-5.5,7.4-8.9,10.4c-3.4,3-7.8,6.2-12.4,6.7c-6.7,0.5-9-2.7-9.8-8.1
			c-1.2,1.9-1.9,4.5-3.1,6.6c-7.5-1.4-16.1-0.4-21.6,2c-0.3-0.4,0.1-0.7,0.4-1c14.5-26.2,26.5-55.5,39.6-83.4
			c5.6,1.9,12.8,0.7,17.6-1.2C162.2,70.6,156.3,84.3,149.7,97z M134.7,121.9c-0.4-0.1-0.4,0.7,0,0.5
			C134.7,122.3,134.7,122,134.7,121.9z M145.6,112.6c-0.8,1.8-1.6,3.6-2.6,6.2c-0.7,1.9-2.3,6-0.3,6.6c1.8,0.5,4.1-2.9,5.1-4.4
			c2.9-4,4.9-7.9,6.6-12.8c0.7-1.9,2.2-7.7-0.5-7.4c-0.5,0.1-1.2,0.5-1.5,0.8C149.7,103.8,147.5,108.5,145.6,112.6z M145.6,90.6
			c0.4,0.1,0.8-0.5,0.4-0.5C145.9,90.3,145.5,90.2,145.6,90.6z M146.8,89.4c0.1,0.5-1.1,0.3-0.7,0.5c0.5-0.1,0,0.4,0.1,0.7
			C146.6,90.3,147.4,89.6,146.8,89.4z M147.1,80.7c-0.1-0.1-0.1-0.3-0.3-0.3c-0.3,0.3-0.5,0.5-0.5,1.1
			C146.7,81.4,146.8,80.9,147.1,80.7z M148.4,77.7c0-0.3,0-0.4,0-0.7c0.5,0.1,0.5-0.7,0.1-0.7c-0.1,0.5-1,1.2-0.4,1.6
			c-0.1,0-0.1-0.1-0.4-0.1c0,0.5,0.5,0.3,0.7,0.5c-0.4,0.3,0.3,0.5,0.1,1c0.4-0.1,0.4-0.4,1-0.1c-0.1-0.5-0.3-1,0-1.5
			C148.8,77.7,148.9,77.7,148.4,77.7z M147.8,79.5c-0.1,0.5,0.7,0.5,0.5,0C148.2,79.5,148.1,79.5,147.8,79.5z M150.3,73
			c0,0.4-0.1,0.5-0.4,0.7c0.1,0.3-0.3,0.7,0.1,1c-0.3,0-0.4,0-0.5,0c0,0.8,0.5,0.8,1.2,0.8c0-0.1,0-0.4,0-0.7
			c-0.4-0.1,0,0.4-0.4,0.3c0.1-0.3-0.1-0.5,0-0.7c0.3,0.4,0.7,0,1,0C151.2,73.5,150.7,73.4,150.3,73z M149.7,76
			c0.5-0.1,0.4,0.4,0.8,0.4C150.7,76,150,75.5,149.7,76z M150.7,76.6c-0.3,0-0.5,0-0.8,0c-0.1,0.7,0.5,0.7,1,0.8
			C150.7,76.9,150.4,77.3,150.7,76.6z M150.3,80.2c0.1,0.1,0.7,0,0.7,0.3c-0.5,0-0.1,0.8,0.3,0.7c0.1-0.5,0.4-1.1,0.7-1.5
			c-0.3-0.1-0.4-0.4-1-0.3c0-0.3,0-0.4,0-0.7c-0.4,0-0.4-0.1-0.8,0C149.9,79.6,150.9,79.5,150.3,80.2z M151.1,77.7
			c-0.1,0.3-0.1,1,0.3,1C151.1,78.4,151.8,77.9,151.1,77.7z M154,74.3c-0.1,0.3-0.4,0.5-0.8,0.5c-0.1-0.7-1.1-0.5-1.6-0.7
			c0,0.1,0,0.4,0,0.7c0.5,0,0.5,0.4,1.1,0.1c-0.1,0.7,1,0.3,0.8,1C154,75.5,154,74.7,154,74.3z M151.8,70.4c0.5,0,0.7-0.5,1.2-0.3
			c0.1-1-1.1,0-0.7-1.1c-0.3,0-0.4,0-0.5-0.1c-0.1,0.7,0.1,1,0.5,1.1C151.9,69.9,151.9,70.1,151.8,70.4z M151.8,73.4
			c0.5-0.1,0.5,0.4,1.2,0.3c0.1-0.4,0.5-0.8,0.5-1.5c-0.7-0.3-1,0.1-1.6,0.3C152,72.8,151.8,73,151.8,73.4z M152,78.7
			c0.3,0,0.4-0.1,0.4-0.5c-0.3,0-0.4,0-0.5,0.1C151.9,78.6,151.9,78.6,152,78.7z M152.2,76.6c-0.4,0.4,0.1,0.7,0.4,0.8
			c0-0.1,0.4,0,0.4-0.3c-0.4-0.4-0.7,0.1-0.4-0.4C152.5,76.8,152.3,76.5,152.2,76.6z M152.3,67.8c-0.4,0.4,1.1,0.8,1.2,0.4
			C153,68.2,152.6,68,152.3,67.8z M153,71.2c-0.3,0.5,0.7,0.7,0.5,0.1C153.4,71.2,153.1,71.2,153,71.2z M154.5,73.9
			c0.1-0.4,0.3-0.5,0.1-1c-0.5,0.1-0.5-0.3-1-0.3c-0.1,0.5,0,0.5,0,1.2C154,73.9,154.2,73.9,154.5,73.9z M154,71.6
			c0.4,0,0.4,0.3,0.8,0.1c0.3-0.1,0.1-0.7,0.1-1c-0.4-0.1-0.5,0.1-1,0.1C154,71,154,71.3,154,71.6z M156.7,65.8
			c-0.1-0.3-0.8-0.1-1,0C155.6,66.4,156.7,66.4,156.7,65.8z M156.8,68.6c0-0.4,0.5-0.4,0.4-1c-0.1,0-0.4,0-0.5,0
			c0.1,1-1,0.4-0.8,1.2C156.1,68.7,156.3,68.4,156.8,68.6z M157.4,66.9c-0.4,0-0.1-0.5-0.5-0.3c0,0.3,0,0.5,0,0.8
			C157.2,67.5,157.4,67.2,157.4,66.9z M158.1,66.1c0-0.3,0.1-0.3,0.1-0.5c-0.4-0.1-0.4,0.1-0.8,0.1C157.4,66.1,157.8,66,158.1,66.1z
			 M159.3,96.3c-0.1,0-0.3-0.1-0.4-0.1c-0.4,0.3-0.1,1.5,0.4,1C158.9,97,159.4,96.7,159.3,96.3z M159.7,109.7
			c-0.3,0.3-0.4,0.8-0.1,1.2c0.4,0,0.5-0.4,1.2-0.3c0-0.3,0.3-0.3,0.1-0.7C160.4,110,160.2,109.6,159.7,109.7z M160.8,95.4
			c0.1-0.4-0.1-0.7-0.5-0.7c0.1,0.5-0.4,0.4-0.3,1C160.5,95.8,160.2,95.2,160.8,95.4z M160.1,108.6c0.3,0,0.5,0,0.8,0
			c0.3-0.7,0.8-1.4,0.5-2.1c-0.5,0-0.7,0-1.1,0.1C160.5,107.5,160,107.8,160.1,108.6z M161.2,111.6c-0.1,0.1-0.5,0.1-0.4,0.7
			c0.7-0.1,0.4-0.7,1-0.1c0-0.5,0.7-0.4,0.8-1c0-0.4-0.4-0.4-0.5-0.7c0.4,0,0.5-0.3,0.5-0.7c-0.5,0.5-1.8,0.4-1.9,1.5
			C160.9,111.4,161.3,111.2,161.2,111.6z M161.2,121.9c-0.1,0-0.3,0-0.5,0c0,0.3,0,0.5,0,0.8C161.2,122.8,161.2,122.3,161.2,121.9z
			 M161.5,116.8c-0.1,0-0.3,0-0.5,0c-0.1,0.4,0.7,0.7,0.7,0.1C161.5,117,161.5,117,161.5,116.8z M160.9,116.3
			c0.3,0.3,0.7,0.4,1.4,0.5C162.3,116.1,161.5,116.3,160.9,116.3z M161.7,95.1c-0.3,0-0.4,0-0.7,0c0,0.1,0,0.4,0,0.5
			C161.5,95.6,161.9,95.6,161.7,95.1z M161.1,99.7c0,0.4,0.4,0.5,0.8,0.7C161.7,100,161.5,99.9,161.1,99.7z M161.7,113.8
			c-0.3,0.5,0.7,0.7,0.5,0.1C162.3,113.8,162,113.8,161.7,113.8z M162,109c0.5,0,1.1,0,1.5,0c0.3,0.8,0.5,1.5,1.5,1.6
			c0.1-0.8-0.5-1-0.8-1.5c0.4,0,1,0,0.8-0.5c-0.7,0.5-0.8,0-1.6,0c0-0.3,0-0.5,0-0.8c-0.8,0.1-0.8-0.4-1.4-0.5
			c0.1,0.5-0.3,0.4-0.3,0.8C162,108.2,162,108.6,162,109z M162,106.7c-0.3,0.4,0.7,0.5,0.5,0.1C162.6,106.6,162.2,106.7,162,106.7z
			 M162.4,105.9c0.5-0.3,0.4,0.3,0.8,0.3c0.4-0.3,0.5-1.1,0.3-1.6c-0.5,0-0.7,0.4-1.2,0.4C162.2,105.3,162.3,105.6,162.4,105.9z
			 M162.4,113.1c0.1,0.1,0.4,0.1,0.8,0.1c0.1-0.7-0.7-0.8-0.8-0.7C162.4,112.7,162.4,112.9,162.4,113.1z M163,93.7
			c-0.3,0.1,0,0.4,0.4,0.4C163.4,93.9,163.2,93.6,163,93.7z M163.7,94.4c-0.3,0.3-0.1,0-0.4,0c-0.1,0.8,1.1,0.5,1.2,0.1
			c-0.4-0.3-0.4-0.8-0.8-1c0,0.1,0,0.3-0.3,0.3C163.4,94.1,163.8,94,163.7,94.4z M164.1,110.5c-0.4-0.4-1.1,0.4-0.7,0.8
			C163.9,111.5,164.1,111.1,164.1,110.5z M164.2,113.7c0-0.3,0-0.7,0-1c-0.7,0.3-0.3-0.7-0.8-0.5c-0.3,0.1,0,1,0,1.4
			C163.8,113.4,163.7,114,164.2,113.7z M165,106.4c-0.4-0.3-0.8,0-0.8,0.5c0.7-0.4,0.8-0.3,1.4-0.8c0.3,0.3-0.1,0.1,0,0.7
			c0.4-0.1,0.4,0.4,0.8,0.4c-0.1-0.4,0-1.2-0.1-1.5c-0.7,0.1-1.1-0.3-1.6,0.4C164.9,106.2,165,106.2,165,106.4z M165.3,112.7
			c-0.4,0-0.7,0.1-0.8,0.5C164.9,113.3,165.4,113.3,165.3,112.7z M166.1,97.4c-0.4,0-0.8,0-1.2,0c-0.3,0.5,0,0.4,0.1,0.8
			C165.6,98.2,166.1,98.1,166.1,97.4z M165.2,93c-0.1,0.1-0.4,0.3-0.3,0.8C165.2,93.9,165.4,93,165.2,93z M165.8,95.2
			c-0.4-0.1-0.8,0.3-0.8,0c0-0.1,0-0.1-0.1-0.1c0,0.5,0.1,1,0.7,1C165.4,95.5,165.8,95.6,165.8,95.2z M166.9,93.3
			c-0.4,0-0.7,0-0.7,0.5C166.5,94.3,166.9,93.9,166.9,93.3z M167.6,106.7c-0.1-0.3-0.8-0.1-0.8,0.3
			C167.3,107.1,167.5,107,167.6,106.7z M167.6,96.2c0.1-0.5,0.5-0.8,0.7-1.4c-0.7,0.5-0.4-0.5-1.4,0.1
			C167.1,95.5,167.2,96.1,167.6,96.2z M167.9,94.5c0-0.1,0-0.4,0.1-0.5c-0.3,0-0.7,0-0.8,0.1C167.2,94.5,167.5,94.5,167.9,94.5z
			 M168,98.4c0.4-0.1,0.7-0.4,0.8-1c-0.3,0-0.1-0.3-0.3-0.3c-0.7-0.1-1.4,0-1.4,0.7C167.8,97.8,168.2,97.8,168,98.4z M168.7,104.5
			c0-0.5-0.1-0.8-0.7-0.8c-0.1,0.5-0.8,0.4-0.7,1.2C168.2,105.5,168,104.4,168.7,104.5z M167.8,106.4c0-0.4,0-0.5-0.3-0.5
			c0,0.1-0.1,0.3-0.1,0.5C167.5,106.4,167.6,106.4,167.8,106.4z M169.4,96.7c0-0.4-0.3-0.5-0.5-0.4c0,0.1,0,0.3,0,0.5
			C169.1,96.9,169.1,96.7,169.4,96.7z"/>
		<path fill="#A29060" d="M221.7,110.3c-1.9,7.4-4.6,13.9-10,17.8c-1.1,0.7-1.9,1.4-3,1.8c-1.1,0.3-2.5,0.1-3.8,0.7
			c-0.7,0.3-1.5,1.5-2.2,2.2c-1.8,2-4.1,4.2-6.3,5.9c-3.1,2.3-6.6,4.5-11.6,4.6c-9.8,0.1-14.1-7.1-13.5-16.9c0.3-5.2,2-10.2,4-14.4
			c3.8-8.2,9.3-14.9,16.3-20c3.6-2.6,8.6-4.8,13.5-5.1c7.9-0.7,12.2,4.1,12.7,10.8c0.5,7.9-3,15.6-5.6,21
			C217.4,117.9,219.3,113.7,221.7,110.3z M176.9,127.3c-0.3,0.5,0.7,0.7,0.5,0.1C177.5,127.3,177.2,127.3,176.9,127.3z M178,121.6
			c0,0.4,0,0.7,0,1.1c0.5-0.1,0.7,0.1,0.8,0.5c0.3-0.3,0.7-0.4,1.2-0.3c0-0.4,0.3-0.4,0.1-0.8C179.5,121.9,178.8,121.7,178,121.6z
			 M178.3,120.4c1.5,1,2.9,0,2.3-1.8c-0.7,0.1-0.5,0.3-1.2,0c0,0.4-0.5,0.4-0.8,0.7C178.7,120,178.1,119.8,178.3,120.4z
			 M180.5,123.7c0,0.4-0.5,0.3-0.4,0.8c0.7-0.1,1-0.5,1.8-0.8c0.1-0.7-0.5-0.5-0.5-1c0.3,0,0.8-0.8,0.3-0.8
			c-0.1,0.5-0.3,0.4-1.1,0.4c0.3,0.5-0.5,0.5-0.7,1.2C180.2,123.4,180.5,123.4,180.5,123.7z M180.5,134.7c0-0.3,0-0.4,0-0.7
			c-0.1,0-0.4,0-0.7,0c0,0.3,0,0.4,0,0.7C180.1,134.7,180.3,134.7,180.5,134.7z M180.2,128.3c0,0.7,0.7,0.4,1.2,0.5
			C181.1,128.4,180.7,128.4,180.2,128.3z M180.2,128.9c0,0.4,0.1,0.7,0.5,0.7C180.7,129.1,180.7,128.7,180.2,128.9z M181.6,126
			c-0.1,0-0.4,0-0.5,0c-0.1,0.4,0.1,0.5,0.5,0.5C181.6,126.3,181.6,126.1,181.6,126z M181.3,121.2c0.5,0,1.1,0,1.5,0
			c0.1,1,0.5,1.6,1.5,1.8c0-0.8-0.5-1.1-0.8-1.6c0.4,0,0.8,0,0.8-0.4c-0.4-0.1-1,0-1.6-0.1c-0.1-0.1-0.1-0.4,0-0.7
			c-0.7-0.1-1.1-0.3-1.4-0.7c0.1,0.5-0.3,0.4-0.3,0.8C181.3,120.4,181.3,120.8,181.3,121.2z M181.3,118.9c-0.3,0.4,0.7,0.5,0.5,0.1
			C181.8,118.7,181.4,118.9,181.3,118.9z M181.8,112c-0.1,0-0.3,0-0.4,0c0,0.3-0.1,0.3-0.1,0.5C181.6,112.5,181.7,112.3,181.8,112z
			 M182.7,118.3c0.4-0.7,0.3-1.4,0-1.9c-0.3,0-0.4,0-0.5,0c-0.1,0.7-1.1,0.7-0.5,1.6C182.1,117.9,182.1,118.5,182.7,118.3z
			 M182.4,124.8c-0.4,0.1-0.4-0.1-0.7-0.1c-0.4,0.4,0,1,0.7,0.8C182.4,125.2,182.4,125,182.4,124.8z M182,111.1
			c-0.1,0.3-0.3,0.4-0.3,0.7C182.1,112,182.2,111.2,182,111.1z M183.1,112.5c-0.1-0.3-0.4-0.3-0.7-0.3c0.1,1-0.7,0.7-0.5,1.5
			C182.7,113.7,182.7,112.9,183.1,112.5z M183.5,124.9c-0.5,0-0.4-0.7-0.8-0.7c-0.1,1-0.3,1.9,0.8,1.6
			C183.5,125.6,183.5,125.2,183.5,124.9z M183.3,122.7c-0.3,0-0.3-0.1-0.5-0.1c-0.3,0.1-0.3,0.4-0.1,1
			C183.2,123.5,183.5,123.2,183.3,122.7z M184.6,125.3c0-0.3,0-0.5-0.3-0.5c0,0.4-0.7,0.1-0.7,0.5
			C183.9,125.6,184.3,125.3,184.6,125.3z M184.6,110.4c0.4,0.1,0.3-0.4,0.8-0.1c0-0.3,0-0.4,0-0.5c-0.5-0.3-1.5-0.1-1.5,0.4
			C184.2,110.1,184.3,110.4,184.6,110.4z M185.7,119.4c-0.3-0.5,0.3-1.4-0.4-1.6c-0.4,0.3-0.5,0.7-0.4,1.4
			C185.2,119,185.2,119.4,185.7,119.4z M185.7,114.8c0-0.7-0.8-0.7-0.8,0C185.1,114.8,185.4,114.8,185.7,114.8z M186.6,116.1
			c0.4,0.1,0.1-0.4,0.5-0.3c0,0.5-0.7,0.5-0.5,1.2c0.3,0,0.5,0,0.8,0c0-0.5,0.7-1,0.1-1.2c0.5,0.1,0.4-0.4,0.5-0.8
			c-0.7-0.3-1.4-0.4-2.2-0.5c0,0.4,0,0.7,0,1.1C186.3,115.5,186.6,115.7,186.6,116.1z M186.1,113.4c1.6,0.8,3-0.1,2.5-1.9
			c-0.8,0.1-0.5,0.3-1.2,0c-0.1,0.4-0.5,0.5-1,0.7C186.6,112.9,185.9,112.7,186.1,113.4z M186.9,118.7c-0.3-0.3-0.8,0-0.8,0.5
			C186.8,119.4,186.8,119,186.9,118.7z M186.9,108.2c-0.1-0.3,0.3-1.1-0.3-1.1c0,0.3,0,0.4-0.3,0.3
			C186.3,107.9,186.5,108.2,186.9,108.2z M188,110.3c0.4-1.5-1.5-1.2-1.6-0.3C187,110,187.2,110.4,188,110.3z M187.4,135.7
			c0-0.1,0-0.3,0-0.4c-0.3,0-0.4,0-0.5,0.1C186.8,135.8,187.2,135.7,187.4,135.7z M188.1,106.2c0.1-0.7-1-0.4-1.2-0.3
			C186.9,106.4,187.7,106,188.1,106.2z M187.4,130.1c0,0.1,0,0.4,0,0.5C188,130.8,188,129.9,187.4,130.1z M187.7,104.4
			c0,0.4,0.1,0.4,0.5,0.4C188.4,104.4,188,104.4,187.7,104.4z M188,108.5c0,0.4,0.1,0.4,0.5,0.4C188.7,108.5,188.3,108.5,188,108.5z
			 M189.5,112.2c0-0.1,0.1-0.3,0.1-0.4c-0.1,0-0.3,0-0.4,0c0,0.1,0,0.3,0,0.4C189.2,112.2,189.3,112.2,189.5,112.2z M189.3,110.9
			c0.3,0,0.5,0,0.7,0c0.1-0.4,0.4-0.8,0.5-1.2c-0.5-0.1-0.7,0.1-1.2,0.1C189.2,110.3,189.3,110.5,189.3,110.9z M190.4,105.6
			c0-0.3,0.1-0.8-0.3-0.7c-0.1,0.1-0.4,0.3-0.3,0.7C190.2,105.6,190.3,105.6,190.4,105.6z M190.7,109.4c0-0.4,0-0.7-0.4-0.7
			c-0.1,0.1-0.1,0.4-0.1,0.7C190.3,109.4,190.6,109.4,190.7,109.4z M204.2,99.6c-4.5,3.8-8.9,12-11.5,18.9c-0.5,1.8-2.2,7.1-0.5,8.3
			c1.6,1.1,3.8-0.8,4.9-1.4c-1.2-7.7,3.1-11.9,9.4-12.8c1.4-3,3-6.6,3.3-10C210.3,97,206.7,97.6,204.2,99.6z M192.1,105.9
			c-0.1,0-0.3,0-0.4,0c-0.1,0.3-0.1,0.7,0.4,0.5C192.1,106.2,192.1,106,192.1,105.9z M192.2,107c-0.3,0-0.4,0-0.5,0
			c0,0.1-0.1,0.7,0.1,0.7C191.8,107.3,192.1,107.3,192.2,107z M192.5,103.4c0.1-0.3,0.8-0.1,0.7-0.8c-0.5,0-1.4-0.3-1.4,0.4
			C191.9,103.2,192.1,103.3,192.5,103.4z M194.1,133c0-0.3,0-0.3,0.1-0.4c-0.5,0.1-1.5-0.3-1.5,0.7
			C193.6,133.2,193.3,132.5,194.1,133z M194.8,102.1c0,0.4-0.7,0.3-0.5,0.8C194.7,103,195.4,102.1,194.8,102.1z M194.8,100.3
			c-0.7-0.1-0.7,1,0,0.8C194.8,100.8,194.8,100.6,194.8,100.3z M195.6,97.3c-0.1,0.4,0.1,0.5,0.4,0.4
			C196.2,97.3,195.9,97.3,195.6,97.3z"/>
		<path fill="#A29060" d="M235.5,123.7c3.7-0.4,5.3-4.5,6.8-7.2c4.9-8.9,9.2-19.1,13.9-28.2c6.2,0,12.4,0,18.6,0
			c-4.1,9.3-8.5,18-12.7,27.1c-1.4,3-3.3,6.3-3,10c1.1,2,4,0.7,5.3-0.5c2-1.6,3.8-4.6,4.9-6.6c-1.6,5.2-4.2,10.8-7.8,15.7
			c-3.1,4.2-7.8,9-14.8,8.9c-6.7-0.3-9.7-6.3-8.2-13.9v-0.1c-2.7,4-5.7,9.3-10.2,12c-7.1,4.5-15.9,0.4-15.2-9.3
			c0.3-4.2,1.9-8.3,3.4-12.2c4.2-10.8,10-22,15.4-31c6-0.1,11.9,0,17.6,0c-4.1,9.4-9.3,18.6-13.3,28.2
			C235.4,118.9,233.8,121.3,235.5,123.7z M218.7,132.7c0.1,0.3-0.1,1,0.3,0.8C219,133.1,219,132.8,218.7,132.7z M220.4,130.1
			c-0.3-0.5,0.1-1.1-0.1-1.6c-0.4-0.1-0.4,0.3-0.7,0.1c0.4,0.7-1,0.8-0.4,1.5C219.4,129.3,219.8,129.9,220.4,130.1z M220.2,127.5
			c-0.1,0-0.3,0-0.4,0c0,0.1,0,0.3,0,0.4C220.1,128,220.2,127.8,220.2,127.5z M220.6,134c0-0.4,0.7-0.3,0.4-0.8
			c-0.5,0-1.2-0.1-1.2,0.5C220.2,133.6,220.1,134.2,220.6,134z M220.1,136c-0.1,0.5,0.5,0.5,0.5,0C220.4,136,220.2,136,220.1,136z
			 M220.6,127.8c0.3,0,0.3,0.3,0.5,0.1c-0.1-0.4,0.8,0.3,1-0.3c0,0.4,0,0.7,0.1,0.8c0.1,0,0.4,0,0.5,0c0.1-0.7-0.5-0.7-0.7-1.1
			c0.1,0,0.4,0,0.5,0c0-0.7-0.4-0.8-0.8-1c0,0.5-0.5,0.8-1,0.5C220.8,127.2,220.6,127.5,220.6,127.8z M220.6,130.5
			c0.8-0.1,0.5-1,1.6-0.7c0-0.7,0-0.4,0.5-0.4c0.1-0.4-0.1-0.5-0.1-0.8c-0.7,0-1,0.3-1.4,0c0,0.4-0.5,0.5-0.7,1
			C221.1,129.9,220.8,129.8,220.6,130.5z M221.6,136.9c0.3-0.1,0-0.5,0.3-0.5c-0.1,0.4,0.4,0.3,0.3,0.7c0.8-0.3,1.2,0.1,1.8-0.3
			c-0.3,0-0.5,0-0.8,0c0.1-0.1,0.1-0.4,0.1-0.7c-0.7-0.1-1.2-0.4-1.8-0.7c0,0.7-0.7,0.5-0.5,1.5
			C221.2,136.9,221.5,136.9,221.6,136.9z M221.3,131.3c0,0.3,0,0.4,0,0.5C221.9,132,221.9,131.3,221.3,131.3z M222.6,124.3
			c0.1-0.4-0.7-0.4-0.5,0C222.1,124.3,222.4,124.3,222.6,124.3z M222.7,120.8c0-0.5,0-1-0.4-1c0,0.4-0.3,0.5-0.3,1
			C222.3,120.8,222.4,120.8,222.7,120.8z M222.1,134.6c-0.3,0.7,0.8,0.5,0.8,0.1C222.8,134.6,222.4,134.6,222.1,134.6z M223.7,131.6
			c0-0.1,0-0.3,0-0.5c-0.7,0.1-0.8-0.1-1.1-0.1c-0.5,0.5,0.1,0.7-0.4,1.2C223,132.3,222.7,131.3,223.7,131.6z M223.7,132.7
			c-0.8-0.1-1.1,0.3-1.4,0.8c0.5,0.3,1.1,0.7,1.6,1C223.4,133.9,224.2,133.4,223.7,132.7z M222.7,119c-0.3,0.5,0.7,0.5,0.5,0.1
			C223.2,119,222.8,119,222.7,119z M223.2,126.9c-0.4,0-0.4,1.1,0.1,0.8C223.7,127.8,223.8,126.8,223.2,126.9z M223.9,122.3
			c0-0.3-0.7-0.1-0.7,0C223,122.7,224.2,122.7,223.9,122.3z M224.1,128.3c0.1-0.4-0.5-0.4-0.4,0
			C223.8,128.3,223.9,128.3,224.1,128.3z M223.9,132c-0.4,0.5,0.5,0.5,0.4,0.1C224.3,132,224.1,132,223.9,132z M224.7,125.6
			c0-0.3,0-0.5,0-1c-0.3,0-0.3,0.3-0.7,0.1C224.2,125.2,224.5,125.4,224.7,125.6z M224.3,120.2c-0.1,0-0.3,1.1,0.3,0.8
			C224.9,120.9,224.9,120,224.3,120.2z M224.3,134.3c0.5,0,1.2,0.5,1.6,0c0,0.4,0.5,0.1,0.4,0.5c-0.3,0.4-0.5,0.3-0.8,0.1
			c-0.1,0.4,0.1,0.5,0.3,0.7c0.5-0.3,1-0.5,1.4-1.1c-0.8,0.1,0-0.1-0.1-0.5c-0.4,0-0.4-0.4-0.7-0.4c0.1,0.8-0.8,0.4-1.1,0.3
			C225.2,134.5,224.5,133.8,224.3,134.3z M224.5,118.9c-0.1,0.7,0.8,0.5,0.8,0.1C225.2,118.9,224.9,118.9,224.5,118.9z M225.2,115.6
			c-0.5,0-0.7,0.3-0.7,0.8C225.2,116.6,225.2,116.1,225.2,115.6z M225,128.4c-0.1,0-0.3,0-0.5,0c0,0.5,0.1,0.7,0.5,0.5
			C225,128.9,225,128.7,225,128.4z M225.8,133.1c-0.3-0.4-0.3-1.1-1.1-1.1c0.1,0.4,0.4,0.5,0.3,1.1
			C225.3,133.1,225.6,133.1,225.8,133.1z M225.4,119.4c-0.1,0-0.4,0-0.5,0c-0.1,0.4,0.1,0.7,0.5,0.5
			C225.4,119.8,225.4,119.6,225.4,119.4z M225.7,114.8c0.4,0,0.7-0.4,0.8-0.7c0.1,0.1,0.4,0.4,0.5,0c-0.5-0.1-0.4-1-1.1-0.8
			c-0.1,0.7-1.1,0.4-1.1,1.2C225.3,114.5,225.4,114.8,225.7,114.8z M226.2,124.1c-0.3-0.5-0.3-1.1-1.1-1.1c0,0.4,0.4,0.4,0.3,1.1
			C225.7,124.1,226,124.1,226.2,124.1z M226.4,128.6c-0.7,0.3-0.5-0.1-1.2-0.1c0,0.5,0.7,0.5,1.2,0.7
			C226.4,129,226.4,128.7,226.4,128.6z M227.1,118.6c-0.1-0.4,0-1-0.1-1.1c-0.3,0-0.4,0-0.5,0c-0.3,0,0,0.8-0.3,0.8s0-0.7-0.5-0.5
			c-0.3,0-0.3,0.3-0.3,0.5c0.7-0.1,0.5,0.4,1.1,0.4C226.4,117.9,226.5,118.9,227.1,118.6z M225.8,127.5c0.4-0.1,0.3,0.4,0.8,0.1
			c0-0.4-0.1-1,0.3-1.1c0.3,0,0.5,0,0.8,0c0.1-0.4-0.1-0.5-0.1-1c-1.1,0.4-0.3-1-0.8-1.1c0.1,1.1-1,0.4-1.2,0.3
			C225.4,125.6,226.2,126.3,225.8,127.5z M226.4,130.8c-0.1-0.3-0.3-0.3-0.5-0.3c-0.3,0.4-0.4,1.2,0.3,1.2
			C225.7,131,226,131.2,226.4,130.8z M225.7,133.5c0,0.3,0.1,0.4,0.5,0.4C226.4,133.4,226,133.4,225.7,133.5z M226.8,117
			c-0.1-0.5-0.3-0.7,0-1.1c-0.4,0-0.7,0.3-0.8,0.5C226.2,116.6,226.1,117.1,226.8,117z M226.8,121.6c-0.1-0.1-0.3-0.1-0.5-0.3
			c-0.3,0.4-0.4,1.4,0.3,1.4C226.1,122,226.4,122,226.8,121.6z M226.7,132.4c-0.3,0-0.4,0-0.5,0c-0.1,0.4,0,0.7,0.5,0.5
			C226.7,132.8,226.7,132.5,226.7,132.4z M226.8,126c-0.1,0-0.3,0-0.3,0.1c-0.3-0.1-0.1-0.5-0.3-0.8
			C226.4,125.6,226.8,125.4,226.8,126z M229,120.8c-0.8-0.5-1,0.7-1.8,0.3C227.3,122,228.6,121.2,229,120.8z M227.2,131.2
			c0.5,0.1,0.4,0.5,0.1,1c0.3,0,0.4,0,0.5,0c0-0.1,0-0.4,0.1-0.5c0.4,0,0,0.7,0.4,0.4c0-0.3-0.3-1.2-0.5-1.8c0.4,0,0.7,0,0.7-0.4
			c0-0.3-0.5-0.1-0.7-0.4c0.5,0.1,0.4-0.3,0.8-0.3c0.1-0.5-0.3-0.4-0.3-0.8c-0.1,0-0.3,0-0.5,0c0.1,0.7-0.8,1.4-0.3,1.8
			C227.2,130.2,227.6,130.9,227.2,131.2z M227.5,112.7c-0.3,0.5,0.7,0.5,0.5,0.1C228,112.7,227.8,112.7,227.5,112.7z M228.6,108.2
			c0-0.3-0.4-0.1-0.3-0.7c-0.1,0-0.3,0-0.4,0c0,0.3-0.1,0.3-0.1,0.7C228,108.2,228.3,108.2,228.6,108.2z M227.8,109.3
			c0,0.4,0.3,0.3,0.3,0.5c0.4,0.1,0.5-0.1,0.7-0.3c0,0.4,0.5,0.1,0.4,0.5c-0.1,0.3-0.4,0.3-0.8,0.1c-0.1,0.5,0.3,0.7,0.7,0.8
			c0.1-0.4,0.7-0.3,1.2-0.3c0-0.4-0.3-0.5-0.1-1c-1.1,0.4-0.4-1.1-1-1.1c0.1,1.1-0.8,0.4-1.2,0.3
			C227.9,109.2,227.9,109.3,227.8,109.3z M228.6,133.1c-0.1,0-0.3,0-0.4,0c0.1,0.3-0.4,0.5,0,0.7
			C228.2,133.4,228.7,133.5,228.6,133.1z M229.3,128.3c0.3-0.3,0.4-0.8,0.5-1.2c-1-0.1-1,0.4-1.5-0.1c0.3,0.5,0,0.4-0.1,1
			C228.7,127.6,228.7,128.3,229.3,128.3z M229,124.1c-0.1,0-0.3,0-0.4,0c0,0.1-0.4,1,0.1,1C229,124.9,228.8,124.3,229,124.1z
			 M229.4,118.2c-0.1,0-0.3-0.1-0.5-0.1c0,0.3,0,0.5,0,0.7C229.3,118.9,229.4,118.6,229.4,118.2z M229.8,126.8c0-0.4,0-0.7-0.3-0.7
			c-0.1,0.3-0.4,0.3-0.3,0.7C229.4,126.8,229.5,126.8,229.8,126.8z M230.9,127.5c-0.1-0.1-0.1-0.4-0.5-0.3c-0.1,0.3-0.5,0.3-0.4,0.8
			c0.1,0,0.3,0,0.5,0c0-0.1-0.1-0.4,0-0.4c0.4-0.1,0.4,0.3,0.5,0.3c0.1,0.3-0.5,0.8,0,1c0.4-0.8,0.4-1.9-0.5-2.2
			c-0.3,0.5,0.4,0.1,0.4,0.5C230.9,127.2,230.9,127.3,230.9,127.5z M230.5,128.9c0,0-0.1,0-0.3,0c-0.1,0.4-0.1,0.7,0.3,0.5
			C230.5,129.3,230.5,129,230.5,128.9z M230.6,130.5c-0.1,0-0.3-0.1-0.3-0.1c-0.1,0.1-0.3,0.3-0.1,0.5
			C230.6,131,230.8,130.9,230.6,130.5z M231.3,104.9c-0.4-0.3-1.1,0.1-1.1,0.5C230.6,105.8,231,105.3,231.3,104.9z M231.7,112.6
			c0.1-0.5,0.4-0.7,0.4-1.4c-1,0-1,0.5-1.5,0c0.1,0.4,0.3,0.7,0.3,1.1C231.4,112.2,231.2,112.7,231.7,112.6z M231.3,108.2
			c-0.1,0-0.3,0-0.4,0c0,0.3-0.4,1.1,0.1,1.1C231.3,109,231.3,108.6,231.3,108.2z M231.7,101.8c-0.1-0.3-1-0.1-1,0.3
			C231,102.3,231.7,102.3,231.7,101.8z M231,104c0,0.8,0.8,0.5,0.4,1.4c0.3,0,0.5,0,0.5,0.1c-0.3,0-0.3,0.3-0.3,0.5
			c0.1,0.3,0.7,0.1,0.5,0.7c0.5,0,0.7-0.4,1.2-0.5c0,0.3-0.1,0.4,0.3,0.4c0.3,0,0.3-0.3,0.3-0.7c-0.3,0-0.4,0-0.5,0.1
			c0.1-1-1-0.5-0.7-1.5c-0.4-0.1-1,0.1-1,0c0.3,0,0-0.5,0.1-0.7C231.7,103.8,231.4,104,231,104z M232.1,111.1c0-0.4,0-0.7-0.3-0.7
			c0,0.3-0.4,0.1-0.3,0.7C231.7,111.1,232,111.1,232.1,111.1z M232.7,109.9c-0.3,0.5,0.7,0.4,0.5,0
			C232.9,109.9,232.8,109.9,232.7,109.9z M233.5,109.6c0-0.4,0.4-0.4,0.3-1.1c-0.5,0.1-1.1,0.1-1.1,0.8
			C232.8,109.6,233.1,109.6,233.5,109.6z M234.4,103.7c0.1,0.4,0.7,0.3,1.1,0.5C235.7,103.6,235,103.7,234.4,103.7z M235.8,100.2
			c-0.1,0.5,0.5,0.5,0.5,0C236.1,100.2,236,100.2,235.8,100.2z M236.4,103.4c-0.4,0-0.8,0.5-0.3,0.7
			C236.1,103.8,236.4,103.7,236.4,103.4z M237,101.4c-0.1,0,0-0.4-0.4-0.3c-0.1,0.3-0.4,0.3-0.3,0.7
			C236.8,101.9,236.9,101.7,237,101.4z M237.3,95.2c0-0.4-0.3-0.5-0.7-0.4c0,0.1,0,0.3,0,0.4C236.9,95.2,237,95.2,237.3,95.2z
			 M238,95.1c0,0.3-0.1,0.3-0.3,0.4C238,96.1,238.7,95.1,238,95.1z M239.4,95.4c-0.1-0.3-0.7,0-1-0.1c0,0.3,0,0.4,0,0.5
			C238.8,95.8,239.5,96.1,239.4,95.4z M239,98.1c0.1-0.5,0.1-0.5,0.4-1c-0.4-0.1-0.5,0.1-0.8,0.1C238.5,97.7,238.7,98,239,98.1z
			 M246.2,135.7c0-0.8-0.8-0.7-0.8-1.5c0.4,0,0.8,0.1,0.8-0.3c-0.5,0-0.8,0-1.8-0.1c0-0.3,0-0.5,0-0.8c-0.1,0-0.4,0-0.7,0
			c0.1,0.3,0.3,0.7,0.1,1.2C245.1,134,244.8,136.2,246.2,135.7z M244.6,129.7c-0.1,0-0.3,0-0.5,0c0.1,0.4-0.4,1.4,0.1,1.5
			C244.7,131.2,244.8,130.1,244.6,129.7z M245,136.5c-0.1-0.5,0.4-0.3,0.3-0.7c-0.1-0.3-0.5-0.4-0.8-0.1
			C244.4,136.1,244.6,136.5,245,136.5z M247,122.6c-0.5,0-1.2-0.1-1.2,0.5C246.2,123.5,247.2,123.4,247,122.6z M247.4,132.4
			c-0.1-0.5,0.3-1.1-0.1-1.5c-0.7-0.3-0.7,0.4-0.5,1.1C247.3,131.9,246.9,132.7,247.4,132.4z M247.3,120.8c0,0.1,0,0.3,0,0.4
			C247.8,121.3,247.8,120.7,247.3,120.8z M248.7,131.6c-0.3,0.1-0.8,0-0.8,0.4C248.1,132.3,248.9,132.1,248.7,131.6z M249.9,123.1
			c0.1-0.5-0.1-0.7-0.3-1.1c-0.8,0-1.4,0.3-1.4,1C248.8,123,249.2,123.2,249.9,123.1z M248.8,120.2c-0.7-0.1-0.7,1.1,0,1
			C248.8,120.9,248.8,120.5,248.8,120.2z M249.2,130.2c0.1-0.3,0-0.7,0.7-0.5c0-0.7-0.4-0.8-0.8-1c0,0.7-0.8,0.5-0.5,1.5
			C248.8,130.2,248.9,130.2,249.2,130.2z M249.9,134.5c0-0.1,0-0.3,0-0.3c-0.3-0.1-0.4,0-0.5,0C249.2,134.6,249.6,134.5,249.9,134.5
			z M249.6,117.4c-0.1,0.4,0.1,0.4,0.5,0.4C250.2,117.4,249.9,117.2,249.6,117.4z M249.9,121.3c-0.3,0.5,0.5,0.7,0.4,0.1
			C250.3,121.3,250,121.3,249.9,121.3z M250.6,129.3c-0.1,0-0.3,0-0.4,0c-0.1,0.1-0.1,0.7,0,1C250.7,130.2,250.8,129.5,250.6,129.3z
			 M250.7,136.4c0-0.3,0-0.7-0.5-0.5c0,0.1-0.1,0.4,0,0.7C250.4,136.5,250.6,136.5,250.7,136.4z M252.4,118.5c0-0.1,0-0.3,0-0.5
			c-0.4,0.1-0.8,0.1-0.7,0.5C251.9,118.5,252.1,118.5,252.4,118.5z M252.6,122.2c0-0.3-0.3-0.4-0.5-0.4c0,0.3,0,0.4,0,0.5
			C252.4,122.3,252.5,122.3,252.6,122.2z M252.4,130.9c-0.3,0.4,0.7,0.5,0.5,0C252.8,130.8,252.5,130.9,252.4,130.9z M253.3,126.4
			c-0.1-0.5-0.3-1.1-1-1.1c0,0.3,0.1,0.7,0.1,1.1C252.8,126.4,253,126.4,253.3,126.4z M253.9,128.2c-0.1,0.4-0.4,0.3-0.7,0.1
			c-0.1,0.5,0.1,0.7,0.4,0.8c0.3-0.3,0.8-0.1,1.1-0.4c-0.4-0.3-0.5-0.8-0.8-1.2c-0.5,0.1-0.7-0.3-1.1-0.3c0,0.1-0.1,0.3-0.3,0.3
			C252.8,128.4,253.7,127.2,253.9,128.2z M254,119.8c-0.1,0-0.3,0-0.5,0c-0.3,0.4,0,1.1,0.3,1.2C253.9,120.7,254.1,120.4,254,119.8z
			 M253.4,118.9c-0.4,0.5,0.5,0.5,0.4,0.1C253.9,118.9,253.6,118.9,253.4,118.9z M256.6,130.6c-0.5,0-0.7-0.8-1-0.4
			c0.1,0,0.1,0.1,0.1,0.3c0.1,0,0.4,0,0.4,0.3C256.3,130.6,256.5,130.8,256.6,130.6z M256.6,113.4c-0.3,0-0.3-0.3-0.5-0.1
			c0,0.4-0.5,0.1-0.3,0.7c0.7-0.1,0.4-0.7,1-0.1c0-0.5,0.4-0.7,0.4-1.2c-0.1,0-0.3,0-0.4,0c0.1,0.5-0.7,0-0.5,0.5
			C256.3,113.1,256.6,113.1,256.6,113.4z M257.3,101.8c-0.4,0-0.5,0.4-0.8,0c-0.1,0.7,0.1,1,0.7,1
			C257.1,102.3,257.4,102.2,257.3,101.8z M258.5,99.9c-0.4,0-1,0.4-0.5,0.8C258.4,100.7,258.5,100.4,258.5,99.9z M258.6,102.3
			c0.4-0.4,0.4-0.7,1-0.1c0.1-0.3,0.3-0.4,0.4-0.8c-0.4,0.1-0.7,0.5-0.4,0c-0.4,0.1-1,0-1.1,0.1
			C258.5,101.9,258.8,101.9,258.6,102.3z M259.7,100.7c-0.4,0-0.8-0.1-1,0.1C258.6,101.5,259.7,101.2,259.7,100.7z M259.7,100.3
			c-0.1,0.3,0.1,0.4,0.4,0.4C260.3,100.3,260,100.3,259.7,100.3z M261.1,97.4c0.1-0.4,0.3-0.7,0.3-1.1c-0.5,0-0.4-0.5-1-0.7
			c-0.1,0.8-0.5,1-0.3,1.9C260.6,97.6,260.7,97.3,261.1,97.4z M260.8,101.8c0-0.1,0-0.3,0-0.4c-0.3,0-0.3,0.3-0.5,0.1
			C260.1,101.9,260.7,101.8,260.8,101.8z M261.4,100.7c-0.1,0.1-0.3,0.7,0.1,0.7C261.6,101.4,261.9,100.6,261.4,100.7z"/>
		<path fill="#A29060" d="M305.7,92.6c-1.8,0-3.6,0-5.5,0c-3.3,6.7-7.4,15.9-10.9,23.2c-1.1,2.3-3.3,5.9-3,8.5c0,1,0.8,2,1.5,2.3
			c2.7,1,4.9-1.6,6-3c1.6-1.9,2.7-3.7,4-5.5c-2.6,7.7-6.2,14.4-11.6,19.4c-2.5,2.5-6,4.6-10.5,5.1c-4.8,0.4-8.7-0.8-10.4-5.1
			c-1.5-4.1-0.1-9.4,1.1-13.1c1.4-4,3.3-7.4,4.8-10.7c3.6-7.4,6.7-14.2,10.1-21.2c-1.2,0-2.6,0-4,0c1-1.5,1.4-3.3,2.6-4.4
			c1.2,0,2.5,0,3.7,0c2.7-5.9,5.3-11.8,8.3-17.4c5.7,2,13.7,0.8,18.7-1.2c0.1,0,0.3,0,0.4,0c-2.3,5.3-5.5,11.1-7.7,16.3
			c-0.4,0.8-1,1.8-0.8,2.3c1.5,0,4,0,5.5,0C307.2,89.5,306.9,91.4,305.7,92.6z M280.4,118.5c-0.4-0.3-0.8,0.1-0.8,0.5
			c0.7,0.1,0.4-0.7,0.8-0.1c0.1-0.4,0.7-0.5,0.7-1.1c-0.4-0.3-0.4,0.4-1,0.1C279.8,118.5,280.5,118.1,280.4,118.5z M280.9,107.9
			c-0.1-0.5,0.3-0.5,0.3-1c-0.5-0.1-0.8,0-0.8,0.5C280.4,107.7,280.5,107.9,280.9,107.9z M282.3,104.9c-0.5,0-1.1,0.8-0.3,0.8
			C282.3,105.6,282.3,105.3,282.3,104.9z M282.6,105.9c-0.1,0.4,0.4,0.4,0.5,0.7c-0.5-0.1-0.7,0.1-0.8,0.4c0.4-0.1,0.1,0.4,0.4,0.5
			c0.1-0.1,0-0.5,0.3-0.5s0,0.5,0.5,0.4c-0.1-0.4,0.4-0.3,0.1-0.8c-0.3-0.1-0.4,0.5-0.4,0.1c0-0.3,0.3-0.4,0.3-1
			C283.1,105.5,282.7,105.8,282.6,105.9z M283,91c0.1-0.7,0.7-0.3,1-0.5c-0.3-0.3-0.4-0.8-1-0.8c0,0.7-0.8,0.5-0.5,1.4
			C282.6,91,282.8,91,283,91z M283.6,100.2c-0.3,0.5,0.8,0.5,0.7,0.1C284.3,100,283.9,100.2,283.6,100.2z M284.9,102.5
			c0.1-0.3,0.3-0.5,0.4-1c-0.4-0.1-0.7-0.5-1.1-0.7c-0.1,0.7-0.5,1-0.3,1.8C284.3,102.7,284.5,102.3,284.9,102.5z M284.6,107
			c0-0.1,0-0.3,0-0.4c-0.3,0-0.3,0.1-0.5,0.1C283.9,107.1,284.3,107,284.6,107z M284.6,90.2c-0.1,0-0.4,0-0.5,0
			c0.1,0.3-0.3,1,0.3,0.8C284.6,90.9,284.6,90.6,284.6,90.2z M285.6,105.8c-0.5-0.1-0.8,0.7-0.3,0.8
			C285.4,106.3,285.6,106.2,285.6,105.8z M286.1,90.7c-0.4-0.3-1-0.1-1,0.4C285.7,91.1,286,91,286.1,90.7z M286.4,97.7
			c0.1-0.3,0-0.8,0.1-1.2c-0.3,0-0.8,0.1-0.7-0.3c0-0.1,0-0.1-0.1-0.1c-0.1,0.4-0.1,0.7-0.1,1.2C286,97.1,285.8,97.7,286.4,97.7z
			 M287.2,94.5c0.1-0.7-0.3-0.8-0.4-1.1c-0.1,0.3-0.3,0.5-0.1,1.1C286.8,94.5,287.1,94.5,287.2,94.5z M287.1,96.5
			c0.3,0.5-0.7,0-0.4,0.5C287.1,97.3,287.7,96.6,287.1,96.5z M287.2,92.4c-0.3,0-0.4,0.3-0.4,0.5C287.2,93,287.3,92.8,287.2,92.4z
			 M287.2,107c0.1-0.4,0-0.5-0.3-0.5c0,0.1,0,0.4,0,0.5C286.9,107,287.1,107,287.2,107z M288,90.2c-0.1,0-0.4,0-0.5,0
			c0.1,0.3-0.3,1,0.3,0.8C288,90.9,288,90.6,288,90.2z M289.9,90.4c-0.4-0.3-1-0.1-1,0.4C289.5,90.9,289.8,90.7,289.9,90.4z
			 M289.9,99.1c-0.1-0.3-0.8-0.1-0.8,0C288.8,99.5,290.1,99.5,289.9,99.1z M289.9,95.5c0.1,0,0.1-0.1,0.3-0.1
			c0.3-0.4-0.3-0.3-0.1-0.5c0.1,0,0.3,0,0.4,0c0-0.3,0.3-1-0.3-0.8c0,0.5-1,0.4-1,1C289.5,95.1,289.4,95.6,289.9,95.5z M290.1,92.1
			c0.1-0.4,0-0.5-0.4-0.5c0,0.1-0.1,0.3,0,0.5C289.8,92.1,289.9,92.1,290.1,92.1z M290.2,88.8c0.1-0.7,0.7-0.3,1-0.5
			c-0.3-0.3-0.4-0.8-1-0.8c0,0.7-0.8,0.5-0.5,1.4C289.8,88.8,290.1,88.8,290.2,88.8z M290.2,97c-0.1,0-0.3,1.1,0.3,0.8
			C290.8,97.7,290.8,96.7,290.2,97z M291.4,94.5c-0.4,0.7-1.1,1.1-1.2,2.2c0.8-0.1,1.6-1.1,1-1.6c0.7-0.1,0.5,0.4,1.1,0.4
			C292.1,95.1,291.8,94.7,291.4,94.5z M291.8,88c-0.1,0-0.4,0-0.5,0c0.1,0.3-0.3,1,0.3,0.8C291.8,88.7,291.8,88.4,291.8,88z
			 M292,85.5c-0.1,0-0.3,0-0.4,0c0,0.4,0,0.7,0.4,0.5C292,85.9,292,85.8,292,85.5z M293.4,83.8c-1,0.1-0.1-1-0.7-1
			c-0.3,0.3-0.3,0.5-0.3,1c1-0.4,0.1,1.1,0.8,1.1C293.5,84.7,293.2,84,293.4,83.8z M293.1,86.3c0-0.1,0-0.3,0-0.5
			c-0.5-0.1-0.7,0.3-0.7,0.7C292.7,86.5,292.9,86.5,293.1,86.3z M293.6,81c0-0.3,0-0.4,0-0.5c-0.4-0.1-0.5,0.1-0.4,0.5
			C293.4,81,293.5,81,293.6,81z M293.9,89.9c0.1-0.4,0-0.5-0.4-0.5c0,0.1-0.1,0.3,0,0.5C293.6,89.9,293.8,89.9,293.9,89.9z
			 M294.6,85.3c-0.3-0.5-0.4-1.2-1.1-1.2c0,0.3,0.3,0.4,0.1,1C294.2,85,294,85.5,294.6,85.3z M293.6,86.1c0.1,0.4,0.3,0.5,0.5,0.5
			s0.3-0.1,0.4-0.3c0,0.4,0.5,0.1,0.4,0.7c-0.4,0.1-0.3,0-0.8,0c0,0.5,0.3,0.7,0.7,0.8c0.1-0.4,0.8-0.3,1.4-0.3c0-0.4-0.4-0.4-0.3-1
			c-0.8,0.1-0.7-0.4-0.5-1c-0.1,0-0.1-0.1-0.4-0.1c0,1-0.7,0.5-1.1,0.3C293.8,85.8,293.8,86.1,293.6,86.1z M294.6,81.2
			c-0.3,0-0.5,0-0.5,0.5C294.4,81.6,294.7,81.6,294.6,81.2z M294.7,83.8c-0.3-0.7,0-0.7,0.3-1.1c-0.1-0.1-0.3-0.3-0.5-0.3
			c0.3,0.5-0.3,0.4-0.3,0.8C294.4,83.3,294.3,83.8,294.7,83.8z M295.3,78.4c-0.3,0-0.4,0-0.7,0c0,0.8,0,1.5,0.8,1.2
			C295.4,79.2,295.4,78.8,295.3,78.4z M297.2,81.7c-0.4-0.3-1.1,0.1-1,0.7C296.6,82.2,297,82.2,297.2,81.7z M296.9,85
			c-0.1,0.1-0.5,1.1,0,1.1C297,85.9,297.5,85,296.9,85z M299,80.2c0.4-0.3,0.5-0.8,0.5-1.6c-0.8-0.8-1.5,0.8-1.1,1.6
			C298.5,80.2,298.8,80.2,299,80.2z"/>
	</g>
	<g>
		<path fill="#A29060" d="M71,136c-11.2,12.2-23.8,21.5-40.2,21.5c-13.1,0-24.5-7.9-26.1-19.8c1.5,2.9,3.7,5.6,6.4,7.9
			c5.6,4.6,13.1,7.2,21,7.2c10.9,0,20.9-3.6,30.8-11.1c2.3-1.8,4.5-3.7,6.7-5.7H71z M119,182.6c3.1-1.4,5.9-3.1,8.2-5.5
			c-3.6,6.7-10.8,12.6-22.1,12.6c-11.8,0-20.5-8.1-22.6-19.5c1.1,2.5,2.6,4.6,4.4,6.6c5.1,5.3,11.9,8.3,19.5,8.3
			C110.9,185,115.1,184.2,119,182.6z"/>
		<path fill="#A29060" d="M132,145.3c0.3,0,0.4,0,0.7,0l-1.9,4.1c0,0-5.6-1-9.4-0.7c-4.9,0.3-9.2,1.5-12.3,2.7
			c0.7-1.1,1.5-2.6,2.5-4.2c0,0,0.1-0.1,0.3-0.1c3.7-1.4,7.4-2.2,11.1-2.5c0.4,0,0.8,0,1.2,0c3.3,0,7.2,0.7,7.2,0.7
			C131.5,145.3,131.7,145.3,132,145.3z M163.9,135c-6.6,9.6-15.3,16.7-23.4,15.7c-1.2-0.1-2.3-0.5-3.1-1.2v-4.1
			c1.2,0.7,2.5,1.1,3.8,1.2h0.1c0.5,0,1.2,0.1,1.8,0.1c4.6,0,9.3-1.9,14.1-5.5C159.4,139.6,161.7,137.5,163.9,135z"/>
		<path fill="#A29060" d="M202.6,139.5c-5.7,6.8-12.7,11.8-19.4,11.8c-7.8,0-11.8-4.5-12.8-11.1c0.5,0.8,1.1,1.5,1.8,2.2
			c1.5,1.5,3.3,2.7,5.3,3.6c2,0.8,4.4,1.2,7,1.2c5.6,0,11.6-2.7,17.2-7.7H202.6z"/>
		<path fill="#A29060" d="M235.3,140.2c-3.8,6-8.7,10.5-13.9,10.5c-5.2,0-8.7-3.6-9.2-9c0.3,0.3,0.5,0.5,0.7,0.8
			c2.5,2.6,5.9,4.1,9.7,4.1C226.9,146.6,231.3,144.4,235.3,140.2z M237.7,142.7c1.6,1.9,4.6,4.1,9.7,4.1c3.3,0,6.6-1.1,9.6-3
			c1.6-1,3.3-2.3,4.8-4c-3.8,6-9,11.1-15.6,11.1c-5.6,0-8.2-3.4-8.9-8.1L237.7,142.7z"/>
		<path fill="#A29060" d="M290.5,138.8c-4.1,6.4-10,12-17.1,12c-7,0-9.7-3.6-9.8-8.5c1.9,2.2,5.2,4.4,11.1,4.4c3.3,0,6.6-1,9.7-2.9
			C286.5,142.7,288.6,141,290.5,138.8z"/>
	</g>
</g>
<g>
	<path fill="#A29060" d="M175.4,9.2h-4.3v13.5H165V9.2h-4.3V3.1h14.6V9.2z"/>
	<path fill="#A29060" d="M190.6,20.8c-1.3,1.3-2.8,1.9-4.6,1.9h-9.7V3.2h9.5c1.7,0,3.3,0.7,4.4,1.9c1.1,1.1,1.9,2.7,1.9,4.4
		c0,1.1-0.3,2.1-0.7,3c0.8,1.1,1.2,2.4,1.2,3.8C192.5,18,191.9,19.5,190.6,20.8z M186,15.8h-1.7h-1.4V9.7h2.8c0.1,0,0.2-0.1,0.2-0.2
		c0-0.1,0-0.1-0.1-0.1c0,0-0.1-0.1-0.2-0.1h-3.4v7.4h3.6c0.2,0,0.4-0.2,0.4-0.5C186.4,16,186.2,15.8,186,15.8z"/>
	<path fill="#A29060" d="M207.8,23.5c-0.2,0-0.4,0-0.6-0.1c-0.4,0-0.8-0.1-1.2-0.1c-0.4-0.1-0.8-0.2-1.1-0.3c-1-0.2-2-0.6-3-1.1
		c-1-0.5-1.8-1.2-2.7-1.9h-0.1v2.8h-6.1V3.1l9.6,0.1c2.3,0,4.3,0.8,6,2.5c1.6,1.6,2.5,3.6,2.5,6c0,1.1-0.2,2.2-0.7,3.2
		c-0.4,1-1,1.9-1.8,2.6c1.3,0,3.1-0.5,3.8-0.9l-4.2,7C208.2,23.5,208,23.5,207.8,23.5z M202.7,9.2h-3.6v4.6h3.6
		c0.6,0,1.2-0.2,1.6-0.7c0.5-0.5,0.7-1,0.7-1.6c0-0.7-0.2-1.2-0.7-1.7C203.9,9.5,203.3,9.2,202.7,9.2z"/>
</g>
<g id="lightening">
	<path fill="#A29060" d="M187.2,194.7c-0.1,0.2-0.1,0.5-0.2,0.7c0,0,0,0,0,0c-0.5,1.9-1.4,4.1-2.3,6c0,0,0,0.1,0,0.1
		c-1.3,2.8-2.5,5.1-2.5,5.1c0.9,0,1.7,0,2.3,0c0.4,0,0.8-0.1,1.1-0.1c0,0,0,0,0,0c0.2,0,0.4,0.1,0.4,0.3c0,0,0,0.1,0,0.2
		c-1,2.2-2.2,4.2-3.6,6.1c-1.6,2.1-3.4,4.1-5.2,5.6c-3,2.8-5.9,4.8-7.5,5.8c0,0-0.1,0-0.1,0c-0.1,0-0.3-0.1-0.1-0.3
		c1.6-1.6,3.1-3.5,4.3-5.4c0,0,0,0,0,0c1.5-2.2,2.6-4.3,3.2-5.5c0,0,0-0.1,0.1-0.1c0.3-0.6,0.5-1,0.5-1c-1.3,0.3-2.4,0.4-3.4,0.5
		c-1.1,0.1-2,0-2.6,0c-0.3,0-0.4-0.3-0.2-0.5c1.4-1.5,2.7-3.2,3.8-4.8c1.4-2.2,2.5-4.3,3.1-5.6c0,0,0.6-1.3,0.6-1.3
		c-0.6,0.2-1.8,0.4-3,0.4c-1.8,0.1-3.9,0.1-4.9,0.1c-0.2,0-0.3-0.2-0.2-0.4c1.2-1.2,2.4-2.7,3.5-4.6c1.1-1.7,2.1-3.7,3-5.6
		c0,0,0,0,0-0.1c2.3-4.9,4.1-9.9,4.6-11.5c0-0.1,0.1-0.1,0.1-0.1c0.1,0,0.1,0,0.1,0.1c0.4,3-0.3,7.6-0.9,11.2c0,0,0,0,0,0
		c-0.6,3-1.1,5.4-1.1,5.4c2.4-0.2,5.5-1,6.8-1.4c0,0,0.1,0,0.1,0C187,194.4,187.2,194.5,187.2,194.7z"/>
</g>
</svg>
