<?xml version="1.0" standalone="no"?>
<!DOCTYPE svg PUBLIC "-//W3C//DTD SVG 20010904//EN"
 "http://www.w3.org/TR/2001/REC-SVG-20010904/DTD/svg10.dtd">
<svg version="1.0" xmlns="http://www.w3.org/2000/svg"
 width="448.000000pt" height="448.000000pt" viewBox="0 0 448.000000 448.000000"
 preserveAspectRatio="xMidYMid meet">
<metadata>
Created by potrace 1.11, written by Peter Selinger 2001-2013
</metadata>
<g transform="translate(0.000000,448.000000) scale(0.100000,-0.100000)"
fill="#000000" stroke="none">
<path d="M860 4357 c0 -2 15 -50 34 -107 37 -115 100 -307 286 -880 67 -206
140 -431 162 -500 l41 -124 -29 -23 c-16 -13 -324 -237 -684 -499 -360 -261
-656 -478 -658 -482 -1 -4 380 -7 848 -6 l850 1 111 -341 c61 -188 141 -435
179 -551 38 -116 94 -289 125 -385 98 -300 113 -342 118 -333 6 10 31 84 116
348 56 173 103 317 290 891 l121 371 850 -1 c468 -1 849 2 848 6 -2 4 -156
118 -343 254 -705 512 -982 713 -1004 732 l-24 18 88 270 c49 148 90 274 91
279 1 6 39 123 84 260 45 138 104 318 130 400 27 83 67 206 89 274 23 69 39
126 37 129 -4 3 -222 -152 -481 -343 -38 -28 -178 -129 -310 -225 -132 -95
-262 -190 -290 -210 -177 -132 -291 -210 -302 -206 -12 5 -263 187 -1055 763
-277 202 -318 230 -318 220z m505 -482 c160 -116 422 -306 582 -423 l293 -212
312 226 c172 125 345 250 383 279 66 48 205 150 403 292 48 34 87 61 89 60 1
-2 -26 -90 -61 -197 -35 -107 -114 -350 -176 -540 -61 -190 -134 -413 -161
-495 -27 -83 -49 -153 -49 -157 0 -5 474 -355 593 -438 17 -12 442 -320 560
-406 15 -10 27 -21 27 -24 0 -3 -329 -5 -732 -5 l-732 0 -32 -95 c-18 -52 -76
-230 -129 -395 -53 -165 -130 -401 -170 -525 -41 -124 -84 -258 -97 -297 -12
-40 -25 -73 -28 -73 -4 0 -21 48 -40 107 -18 60 -59 187 -91 283 -31 96 -112
344 -179 550 -66 206 -127 391 -135 410 l-13 35 -726 1 c-400 1 -728 3 -731 5
-4 5 -5 5 670 494 264 191 486 353 493 360 14 13 4 46 -273 895 -40 124 -92
281 -114 350 -22 69 -43 134 -47 144 -10 25 -28 38 311 -209z"/>
<path d="M1290 3797 c1 -17 22 -42 42 -50 10 -3 28 -22 40 -41 13 -20 30 -38
38 -41 8 -3 28 -24 43 -46 27 -40 29 -40 48 -23 16 14 19 15 19 2 0 -9 17 -35
39 -59 32 -36 41 -42 53 -31 12 10 23 2 62 -49 45 -57 73 -72 70 -35 -3 32 21
10 50 -46 31 -61 54 -78 72 -54 10 14 13 14 27 -2 9 -10 26 -39 37 -65 15 -34
27 -47 41 -47 11 0 18 4 14 9 -3 5 -1 12 4 15 12 8 31 -16 36 -45 3 -13 23
-39 44 -59 30 -26 42 -45 46 -75 7 -52 31 -69 55 -40 19 23 -3 87 -40 118 -16
14 -32 38 -36 53 -10 42 -48 89 -88 108 -20 9 -43 30 -51 47 -16 30 -68 69
-94 69 -8 0 -29 17 -47 38 -19 22 -49 44 -73 52 -22 7 -48 24 -57 37 -8 13
-34 32 -57 42 -23 10 -48 30 -56 43 -8 16 -29 31 -55 39 -22 7 -51 23 -63 36
-12 13 -29 23 -38 23 -8 0 -31 17 -50 39 -36 39 -75 59 -75 38z"/>
<path d="M3164 3800 c-11 -4 -34 -24 -52 -44 -17 -20 -38 -36 -47 -36 -9 0
-26 -11 -38 -24 -12 -13 -36 -27 -54 -30 -18 -4 -45 -23 -62 -41 -16 -19 -45
-41 -65 -49 -19 -8 -42 -25 -50 -39 -9 -13 -33 -29 -54 -36 -43 -15 -74 -38
-90 -68 -6 -11 -25 -23 -42 -27 -17 -3 -44 -20 -59 -37 -54 -60 -66 -71 -101
-93 -23 -14 -41 -38 -55 -71 -11 -28 -32 -60 -47 -73 -35 -29 -53 -84 -38
-112 22 -40 47 -21 56 45 3 19 20 43 44 65 21 19 45 52 54 73 14 34 39 53 33
25 -1 -6 6 -14 16 -16 12 -2 22 9 38 45 11 26 28 56 36 65 14 16 17 16 27 2
18 -24 40 -8 72 53 30 57 53 79 50 47 -3 -37 25 -22 70 35 39 51 50 59 62 49
12 -11 21 -5 53 31 22 24 39 50 39 59 0 13 2 13 18 -2 18 -15 20 -15 34 1 9
10 21 28 27 41 6 12 18 22 25 22 8 0 21 12 31 28 9 15 35 43 57 63 42 37 49
62 12 49z"/>
<path d="M1396 3582 c38 -67 143 -178 295 -312 198 -175 256 -252 288 -383 26
-106 73 -125 65 -27 -9 104 -78 224 -194 335 -84 81 -72 70 -190 162 -58 44
-135 112 -171 149 -37 38 -77 78 -89 89 l-23 20 19 -33z"/>
<path d="M3009 3524 c-46 -47 -138 -128 -204 -179 -243 -190 -349 -326 -369
-476 -4 -30 -2 -51 7 -63 13 -17 14 -17 30 7 9 14 21 47 27 73 6 27 22 70 35
96 52 103 92 148 265 298 125 109 160 142 213 208 57 70 93 122 84 122 -2 0
-42 -39 -88 -86z"/>
<path d="M1400 3440 c44 -76 140 -221 163 -245 32 -34 76 -131 93 -202 22 -95
22 -223 -1 -303 -33 -115 -81 -148 -457 -324 -123 -57 -172 -90 -266 -183 -41
-40 -109 -98 -151 -127 -72 -51 -178 -106 -203 -106 -9 0 -9 -3 0 -12 20 -20
112 -13 182 15 36 14 75 28 88 32 20 6 21 4 12 -21 -6 -15 -8 -29 -5 -32 6 -7
76 42 106 75 l24 25 -40 -21 c-35 -19 -40 -19 -43 -5 -3 11 -10 14 -25 10 -12
-3 -61 -17 -110 -30 -48 -14 -87 -23 -87 -21 0 1 28 18 63 35 94 49 159 93
220 148 73 66 116 91 277 155 264 106 356 162 422 256 59 85 82 167 82 291 1
219 -39 298 -269 535 -103 107 -106 108 -75 55z"/>
<path d="M2988 3367 c-206 -216 -247 -294 -254 -482 -5 -129 21 -230 80 -319
68 -100 168 -162 435 -267 148 -58 195 -85 268 -151 61 -55 125 -98 227 -152
37 -20 64 -36 58 -36 -5 0 -53 13 -108 30 -115 35 -112 34 -116 16 -2 -12 -10
-11 -42 5 l-39 19 19 -21 c25 -28 104 -82 111 -76 2 3 0 14 -6 25 -21 40 -15
39 95 -4 76 -29 135 -37 171 -23 20 8 24 13 13 16 -101 35 -245 133 -365 248
-97 94 -132 116 -344 214 -202 94 -289 146 -326 195 -76 101 -76 356 0 508 14
27 45 75 69 107 51 66 169 251 164 256 -2 2 -52 -46 -110 -108z"/>
<path d="M2218 2808 c-3 -115 -4 -123 -23 -123 -20 0 -35 -34 -16 -36 6 -1 17
-2 24 -3 6 0 13 -18 15 -38 3 -30 7 -38 23 -38 10 0 20 6 20 13 1 6 3 19 4 27
1 8 3 21 4 28 0 6 10 12 21 12 13 0 20 7 20 20 0 14 -7 20 -23 20 -21 0 -23 4
-24 65 -3 184 -2 175 -23 175 -18 0 -20 -8 -22 -122z"/>
<path d="M1838 2851 c-23 -32 -15 -107 16 -169 24 -48 86 -109 196 -195 45
-36 60 -56 86 -116 33 -75 49 -81 38 -14 -11 72 -54 133 -173 248 -93 89 -118
128 -134 205 -13 64 -13 64 -29 41z"/>
<path d="M2611 2806 c-15 -76 -24 -90 -142 -211 -97 -99 -119 -125 -142 -170
-18 -36 -32 -115 -19 -115 4 0 22 31 39 69 25 58 40 77 89 113 97 73 165 141
191 191 31 63 38 139 14 168 -17 21 -17 20 -30 -45z"/>
<path d="M1810 2474 c0 -20 14 -53 39 -89 46 -68 43 -97 -9 -89 -36 6 -41 -14
-9 -42 12 -10 33 -37 46 -58 14 -22 39 -52 56 -68 27 -24 40 -28 90 -28 56 0
117 -22 117 -42 0 -4 4 -8 9 -8 14 0 2 80 -19 128 -32 71 -56 98 -168 182 -59
44 -117 95 -129 112 l-23 33 0 -31z m196 -233 c52 -32 51 -89 0 -61 -20 10
-56 58 -56 74 0 12 25 6 56 -13z"/>
<path d="M2645 2469 c-11 -16 -68 -66 -127 -109 -58 -44 -116 -93 -128 -109
-46 -65 -82 -183 -60 -196 6 -3 10 -2 10 2 0 21 61 43 117 43 50 0 63 4 90 28
17 16 43 49 58 73 16 24 36 50 47 57 27 20 24 46 -5 38 -13 -3 -32 0 -42 8
-18 13 -18 15 10 56 46 66 57 88 53 115 l-3 25 -20 -31z m-115 -215 c0 -14
-33 -60 -55 -76 -31 -23 -50 -4 -32 32 16 32 87 68 87 44z"/>
<path d="M1636 2345 c-62 -57 -164 -93 -301 -105 -120 -11 -181 -30 -224 -72
-17 -17 -30 -33 -27 -35 2 -2 28 8 57 23 49 24 63 27 189 28 144 2 131 -2 283
74 4 2 14 -12 22 -32 15 -34 14 -39 -11 -89 -15 -28 -35 -64 -45 -79 -22 -31
-23 -38 -6 -38 15 0 70 55 86 88 12 23 13 22 59 -30 26 -28 57 -61 70 -72 32
-28 78 -105 88 -147 10 -43 9 -36 19 -94 4 -27 9 -56 11 -62 5 -29 48 -152 70
-205 13 -32 24 -72 24 -90 0 -65 62 -128 126 -128 l27 0 -27 21 c-32 25 -66
89 -66 123 0 14 -16 69 -36 123 -50 138 -65 212 -65 314 0 88 0 89 -28 104
-51 26 -112 108 -172 231 -33 66 -59 127 -59 135 0 15 -19 39 -31 39 -3 0 -18
-11 -33 -25z"/>
<path d="M2777 2318 c-75 -184 -162 -320 -228 -353 -27 -15 -28 -16 -28 -104
0 -103 -16 -177 -65 -314 -20 -54 -36 -109 -36 -123 0 -34 -34 -98 -66 -123
-25 -20 -26 -21 -5 -21 35 0 88 27 106 53 8 13 20 50 25 82 5 31 13 62 18 69
22 29 74 204 92 310 15 91 45 148 121 230 35 37 69 76 77 87 14 20 14 20 30
-3 26 -39 75 -88 89 -88 18 0 17 2 -25 72 -21 35 -41 71 -45 81 -7 20 18 91
30 85 151 -76 139 -72 283 -74 126 -1 139 -3 188 -28 30 -15 56 -26 58 -23 2
2 -10 18 -27 35 -37 38 -129 69 -209 71 -121 3 -244 44 -315 105 -16 14 -34
26 -38 26 -4 0 -18 -24 -30 -52z"/>
<path d="M1511 2113 c-23 -27 -41 -51 -41 -55 0 -5 -7 -8 -15 -8 -11 0 -13 8
-9 33 l6 32 -36 -37 c-32 -34 -35 -35 -38 -15 -3 18 -9 13 -43 -33 -22 -30
-46 -63 -53 -72 -20 -28 10 -23 45 6 28 23 30 24 41 6 16 -27 42 -16 112 47
60 54 90 97 90 128 0 26 -17 17 -59 -32z"/>
<path d="M2910 2142 c0 -26 48 -90 101 -136 57 -49 79 -58 101 -39 15 13 20
12 46 -7 52 -39 52 -17 -1 54 -37 49 -53 64 -55 51 -3 -14 -10 -12 -39 16
l-36 34 6 -32 c5 -25 3 -33 -8 -33 -8 0 -15 3 -15 8 0 11 -81 102 -91 102 -5
0 -9 -8 -9 -18z"/>
<path d="M1273 2083 c-7 -2 -13 -10 -13 -16 0 -7 -18 -36 -40 -64 -51 -68 -30
-68 32 -1 56 60 66 100 21 81z"/>
<path d="M3177 2084 c-13 -13 90 -134 113 -134 5 0 -13 32 -41 70 -50 69 -59
76 -72 64z"/>
<path d="M1181 2063 c-7 -3 -25 -19 -40 -34 -14 -16 -41 -37 -60 -47 -19 -9
-37 -23 -39 -29 -5 -18 32 -16 67 1 36 19 103 94 96 106 -4 6 -7 10 -8 9 -1 0
-8 -3 -16 -6z"/>
<path d="M2030 2057 c-29 -15 -40 -47 -15 -47 26 0 77 30 72 43 -5 17 -28 19
-57 4z"/>
<path d="M2397 2063 c-4 -3 -7 -10 -7 -14 0 -11 54 -39 75 -39 26 0 17 29 -15
45 -32 17 -43 18 -53 8z"/>
<path d="M3274 2059 c-17 -28 137 -142 160 -119 12 12 -23 52 -40 46 -6 -2
-30 15 -54 40 -44 46 -54 51 -66 33z"/>
<path d="M1025 2009 c-85 -70 -91 -102 -7 -37 30 22 59 41 65 42 21 3 38 17
32 27 -12 18 -41 8 -90 -32z"/>
<path d="M3366 2041 c-7 -11 18 -33 27 -25 3 4 29 -12 58 -35 28 -22 56 -41
60 -41 21 0 5 20 -50 64 -58 45 -84 55 -95 37z"/>
<path d="M2078 1953 c-20 -45 -27 -144 -15 -203 10 -47 48 -140 65 -157 16
-16 17 -16 20 3 2 11 -3 46 -11 79 -19 82 -20 179 -3 243 13 46 12 54 -1 67
-23 24 -33 18 -55 -32z"/>
<path d="M2342 1988 c-6 -9 -6 -28 2 -59 19 -72 19 -150 0 -249 -10 -49 -15
-93 -11 -96 12 -13 27 9 57 88 25 64 31 96 32 157 1 115 -44 203 -80 159z"/>
<path d="M2100 1429 c0 -22 8 -44 20 -57 22 -24 57 -31 44 -9 -5 6 -21 32 -36
56 l-28 45 0 -35z"/>
<path d="M2355 1428 c-8 -18 -22 -43 -31 -55 -15 -21 -15 -23 -1 -23 27 0 57
41 57 77 0 41 -6 42 -25 1z"/>
<path d="M2070 1241 c0 -14 59 -56 99 -70 71 -23 157 -8 213 40 42 35 33 43
-21 22 -34 -13 -50 -15 -83 -6 -28 7 -50 8 -74 0 -31 -10 -64 -4 -121 19 -7 3
-13 1 -13 -5z"/>
<path d="M2226 1102 c-3 -5 -9 -27 -12 -48 -7 -44 26 -251 37 -231 4 6 8 73
10 147 4 119 2 135 -13 138 -9 2 -19 -1 -22 -6z"/>
<path d="M2134 1086 c-8 -22 58 -251 79 -272 7 -8 -2 66 -18 138 -8 37 -15 80
-15 95 0 42 -34 71 -46 39z"/>
<path d="M2295 1048 c-12 -30 -16 -71 -16 -147 1 -57 3 -106 5 -109 6 -5 25
66 32 120 3 24 7 54 9 67 17 105 17 111 2 111 -8 0 -22 -19 -32 -42z"/>
</g>
</svg>
