<?xml version="1.0" standalone="no"?>
<!DOCTYPE svg PUBLIC "-//W3C//DTD SVG 20010904//EN"
 "http://www.w3.org/TR/2001/REC-SVG-20010904/DTD/svg10.dtd">
<svg version="1.0" xmlns="http://www.w3.org/2000/svg"
 width="260.000000pt" height="260.000000pt" viewBox="0 0 260.000000 260.000000"
 preserveAspectRatio="xMidYMid meet">
<metadata>
Created by potrace 1.11, written by Peter Selinger 2001-2013
</metadata>
<g transform="translate(0.000000,260.000000) scale(0.100000,-0.100000)"
fill="#000000" stroke="none">
<path d="M1485 2237 c-26 -67 -52 -128 -58 -134 -5 -7 -7 -13 -4 -13 13 0
-146 -330 -221 -460 -59 -102 -83 -137 -149 -216 -24 -28 -43 -56 -43 -61 0
-11 82 -17 228 -15 93 0 119 -6 92 -23 -5 -3 -10 -12 -10 -20 0 -41 -197 -351
-282 -443 -26 -28 -37 -47 -31 -53 11 -11 228 -14 244 -4 15 10 11 -3 -25 -68
-52 -96 -113 -195 -176 -282 -57 -79 -73 -99 -131 -162 -83 -93 76 6 246 151
182 155 340 348 438 532 41 79 39 84 -40 85 -38 1 -72 1 -76 0 -5 -1 -6 2 -4
6 3 5 30 61 61 126 124 258 198 468 158 443 -13 -8 -167 -37 -224 -43 -66 -6
-67 -6 -44 73 8 27 17 60 20 74 3 14 14 68 26 120 27 120 27 116 34 170 3 25
8 54 10 65 16 80 26 264 16 270 -4 3 -29 -50 -55 -118z"/>
</g>
</svg>
